<svg xmlns="http://www.w3.org/2000/svg" width="2048" height="2048" viewBox="0 0 2048 2048" version="1.1">
	<path d="M 573.728 74.808 C 572.228 75.718, 571 77.048, 571 77.764 C 571 78.479, 570.267 80.737, 569.372 82.782 C 568.477 84.827, 567.608 87.511, 567.441 88.746 C 567.274 89.981, 566.863 91.856, 566.528 92.912 C 566.193 93.968, 566.409 95.135, 567.008 95.505 C 567.683 95.922, 567.750 96.620, 567.185 97.339 C 566.683 97.978, 566.199 99.175, 566.109 100 C 566.019 100.825, 565.682 103.695, 565.362 106.378 C 564.950 109.823, 565.104 111.053, 565.889 110.569 C 567.499 109.573, 567.251 110.606, 565.447 112.411 C 563.955 113.902, 563.645 115.392, 562.512 126.500 C 562.231 129.250, 561.767 132.850, 561.479 134.500 C 561.192 136.150, 560.795 139.525, 560.598 142 C 560.064 148.703, 558.805 160.222, 558.358 162.500 C 558.142 163.600, 557.700 168.279, 557.375 172.898 C 556.832 180.617, 556.926 181.243, 558.533 180.626 C 559.927 180.091, 560.052 180.232, 559.150 181.319 C 558.527 182.070, 558.351 183.052, 558.759 183.502 C 559.166 183.952, 558.938 183.997, 558.250 183.601 C 557.563 183.206, 556.970 183.246, 556.933 183.691 C 556.895 184.136, 556.674 185.963, 556.441 187.750 C 556.162 189.890, 556.441 191.010, 557.258 191.030 C 557.941 191.047, 557.695 191.529, 556.711 192.102 C 555.215 192.973, 554.962 194.320, 555.164 200.338 C 555.297 204.296, 555.051 208.108, 554.617 208.811 C 554.161 209.548, 554.542 211.178, 555.518 212.667 C 556.447 214.086, 556.711 214.939, 556.104 214.564 C 555.379 214.116, 554.956 215.191, 554.872 217.691 C 554.686 223.266, 554.367 225.597, 553.630 226.789 C 553.269 227.373, 543.193 234.357, 531.237 242.309 C 428.103 310.907, 340.161 398.497, 271.513 500.991 C 183.956 631.716, 130.952 781.353, 116.536 938.500 C 111.521 993.174, 111.539 1053.050, 116.587 1108 C 138.706 1348.791, 253.054 1572.015, 435.319 1730.213 C 650.299 1916.804, 939.671 1995.904, 1219.079 1944.454 C 1274.436 1934.261, 1322.811 1920.880, 1377 1900.773 C 1559.708 1832.979, 1717.539 1708.860, 1826.227 1547.500 C 1922.675 1404.311, 1976.335 1243.709, 1986.102 1069 C 1987.418 1045.459, 1986.792 979.375, 1985.041 957 C 1972.049 790.988, 1919.851 638.273, 1830.009 503.423 C 1755.204 391.145, 1659.728 298.655, 1544.200 226.557 L 1522.466 212.993 1522.665 209.247 C 1523.246 198.296, 1523.220 192.165, 1522.588 191.143 C 1522.200 190.514, 1522.264 190, 1522.730 190 C 1523.197 190, 1523.587 188.988, 1523.597 187.750 C 1523.608 186.512, 1523.702 183.311, 1523.808 180.637 C 1523.998 175.818, 1524.028 175.777, 1527.044 176.220 C 1528.718 176.465, 1530.333 176.270, 1530.633 175.785 C 1530.933 175.300, 1531.857 175.467, 1532.688 176.156 C 1533.522 176.849, 1537.220 177.473, 1540.954 177.551 C 1548.157 177.703, 1550.269 176.424, 1549.506 172.376 C 1549.312 171.344, 1549.119 170.162, 1549.077 169.750 C 1549.034 169.338, 1548.341 169, 1547.535 169 C 1546.730 169, 1545.529 167.989, 1544.868 166.753 C 1544.174 165.456, 1543.496 165.012, 1543.266 165.703 C 1542.985 166.544, 1542.144 166.625, 1540.433 165.975 C 1539.095 165.466, 1538 165.318, 1538 165.647 C 1538 165.976, 1537.322 165.683, 1536.494 164.995 C 1535.666 164.308, 1532.935 163.690, 1530.424 163.623 C 1525.335 163.485, 1523.715 161.856, 1525.082 158.250 C 1525.832 156.273, 1528.285 155.422, 1532.079 155.824 C 1532.806 155.902, 1532.508 153.039, 1531.559 150.820 C 1531.163 149.896, 1529.566 148.696, 1528.009 148.153 C 1525.338 147.222, 1525.159 146.790, 1524.839 140.529 C 1524.653 136.879, 1524.854 133.540, 1525.287 133.109 C 1525.720 132.678, 1525.706 131.240, 1525.256 129.913 C 1524.807 128.586, 1524.571 123.225, 1524.732 118 C 1524.894 112.775, 1524.975 107.825, 1524.913 107 C 1524.851 106.175, 1524.720 102.800, 1524.622 99.500 C 1524.523 96.200, 1524.105 92.959, 1523.692 92.297 C 1523.279 91.636, 1522.756 89.240, 1522.530 86.972 C 1522.100 82.646, 1520.390 79.641, 1518.887 80.570 C 1518.399 80.871, 1518 80.694, 1518 80.176 C 1518 79.657, 1516.875 79.018, 1515.500 78.755 C 1514.125 78.492, 1513 78.665, 1513 79.139 C 1513 80.530, 1510.262 80.125, 1509.696 78.650 C 1508.828 76.388, 1504.689 77.432, 1501.144 80.806 C 1499.299 82.563, 1497.386 84, 1496.894 84 C 1496.402 84, 1496 84.702, 1496 85.559 C 1496 86.483, 1496.470 86.827, 1497.155 86.405 C 1497.847 85.977, 1498.038 86.129, 1497.633 86.784 C 1497.262 87.385, 1496.092 87.710, 1495.033 87.506 C 1493.796 87.268, 1491.456 88.719, 1488.483 91.568 C 1485.939 94.006, 1483.470 96, 1482.996 96 C 1482.522 96, 1481.847 96.907, 1481.495 98.015 C 1481.144 99.123, 1480.435 99.769, 1479.921 99.451 C 1479.407 99.133, 1478.674 99.689, 1478.293 100.687 C 1477.913 101.684, 1476.763 103.400, 1475.739 104.500 L 1473.876 106.500 1474.578 104.500 C 1474.982 103.346, 1473.336 104.510, 1470.687 107.250 C 1468.162 109.863, 1465.746 112, 1465.320 112 C 1464.893 112, 1462.898 113.800, 1460.887 116 C 1458.876 118.200, 1457.420 120, 1457.650 120 C 1457.880 120, 1456.688 121.350, 1455 123 C 1453.312 124.650, 1451.747 126, 1451.522 126 C 1451.297 126, 1449.400 127.856, 1447.306 130.124 C 1445.213 132.392, 1442.523 135.302, 1441.330 136.589 C 1440.136 137.877, 1439.005 139.734, 1438.816 140.715 C 1438.627 141.697, 1437.804 142.520, 1436.986 142.545 C 1436.169 142.570, 1435.613 143.133, 1435.750 143.795 C 1435.888 144.458, 1435.540 145, 1434.979 145 C 1434.417 145, 1433.404 146.231, 1432.729 147.736 C 1432.053 149.241, 1430.825 151.234, 1430 152.165 C 1426.816 155.756, 1426.328 156.628, 1426.572 158.291 C 1426.711 159.236, 1426.384 159.737, 1425.846 159.405 C 1425.307 159.072, 1424.258 159.632, 1423.514 160.650 C 1422.360 162.228, 1421.746 162.331, 1419.331 161.354 C 1417.774 160.723, 1408.400 156.946, 1398.500 152.959 C 1267.107 100.051, 1121.211 77.364, 981 88.041 C 881.817 95.593, 784.580 118.642, 692.979 156.315 C 680.636 161.392, 673.715 163.738, 672.229 163.350 C 671.003 163.029, 670 162.437, 670 162.033 C 670 161.630, 666.625 157.745, 662.500 153.401 C 658.375 149.056, 655 145.137, 655 144.692 C 655 144.246, 654.550 144.160, 654 144.500 C 653.450 144.840, 653 144.641, 653 144.059 C 653 143.477, 653.477 143, 654.059 143 C 654.641 143, 654.797 142.480, 654.405 141.845 C 653.995 141.183, 654.127 140.961, 654.715 141.324 C 655.278 141.672, 657.035 140.842, 658.620 139.480 C 660.204 138.117, 661.864 137.002, 662.309 137.001 C 662.754 137.001, 662.843 136.555, 662.507 136.011 C 662.171 135.468, 662.482 135.247, 663.198 135.522 C 663.914 135.796, 665.737 134.873, 667.250 133.470 C 668.763 132.067, 670 131.194, 670 131.531 C 670 131.868, 670.675 131.468, 671.500 130.643 C 673.228 128.915, 673.463 126.404, 671.984 125.490 C 671.425 125.144, 671.229 124.438, 671.550 123.919 C 671.870 123.401, 669.782 123.903, 666.910 125.036 C 664.037 126.168, 661.083 126.862, 660.344 126.578 C 659.605 126.295, 659 126.673, 659 127.418 C 659 128.259, 657.280 129.031, 654.467 129.453 C 651.709 129.866, 649.486 130.850, 648.789 131.966 C 647.020 134.799, 643.600 132.747, 639.275 126.259 C 638.454 125.026, 637.380 124.265, 636.891 124.568 C 636.401 124.870, 636 124.240, 636 123.166 C 636 122.092, 635.325 120.955, 634.500 120.638 C 633.675 120.322, 633 118.933, 633 117.552 C 633 115.636, 633.933 114.565, 636.934 113.034 C 639.098 111.930, 641.500 110.124, 642.274 109.020 C 643.047 107.916, 643.977 107.310, 644.340 107.673 C 644.703 108.036, 645 107.358, 645 106.167 C 645 104.928, 645.629 104, 646.469 104 C 647.361 104, 647.712 103.413, 647.364 102.506 C 647.048 101.684, 646.388 101.260, 645.895 101.565 C 645.403 101.869, 645 101.704, 645 101.198 C 645 100.662, 643.328 100.724, 641 101.346 C 638.800 101.933, 637 102.995, 637 103.707 C 637 104.418, 636.541 105, 635.980 105 C 635.419 105, 633.154 106.140, 630.947 107.533 C 627.243 109.872, 626.765 109.949, 624.744 108.533 C 623.540 107.690, 622.901 107, 623.323 107 C 623.745 107, 622.850 105.763, 621.333 104.250 C 619.817 102.737, 618.166 101.631, 617.665 101.791 C 617.164 101.951, 617.026 101.375, 617.358 100.510 C 617.760 99.463, 617.134 98.562, 615.480 97.809 C 614.116 97.188, 613 96.207, 613 95.631 C 613 95.055, 610.638 92.327, 607.750 89.570 C 604.862 86.813, 602.569 84.319, 602.654 84.029 C 602.919 83.123, 600.573 81.500, 599 81.500 C 598.175 81.500, 597.624 80.904, 597.775 80.176 C 597.926 79.447, 597.649 79.099, 597.158 79.402 C 596.668 79.705, 595.462 79.063, 594.479 77.976 C 593.495 76.889, 592.085 76, 591.345 76 C 590.605 76, 589.993 75.438, 589.985 74.750 C 589.973 73.779, 589.797 73.771, 589.197 74.716 C 588.600 75.654, 587.773 75.595, 585.577 74.456 C 583.348 73.299, 582.418 73.238, 581.289 74.175 C 580.427 74.891, 579.577 74.996, 579.174 74.436 C 578.095 72.938, 576.646 73.037, 573.728 74.808 M 580.975 91.565 C 580.439 92.976, 580 95.001, 580 96.065 C 580 97.129, 579.100 98.900, 578 100 C 576.556 101.444, 576.392 102, 577.412 102 C 578.217 102, 578.679 102.752, 578.488 103.750 C 578.304 104.713, 578.119 105.864, 578.077 106.309 C 578.034 106.754, 577.644 106.898, 577.209 106.629 C 576.774 106.360, 576.598 107.682, 576.818 109.565 C 577.038 111.449, 576.875 113.780, 576.455 114.745 C 576.036 115.710, 575.785 117.257, 575.898 118.182 C 576.010 119.107, 575.403 123.607, 574.547 128.182 C 573.400 134.316, 572.402 137.003, 570.746 138.416 C 568.954 139.945, 568.874 140.196, 570.353 139.658 C 572.058 139.037, 572.161 139.442, 571.640 144.742 C 571.328 147.909, 570.624 152.013, 570.074 153.863 C 569.525 155.712, 569.111 157.512, 569.156 157.863 C 569.200 158.213, 569.166 158.725, 569.080 159 C 568.994 159.275, 568.717 162.173, 568.465 165.439 C 568.213 168.705, 567.668 171.630, 567.253 171.939 C 566.553 172.460, 566.067 177.664, 565.942 185.975 C 565.913 187.887, 565.418 189.742, 564.841 190.098 C 564.120 190.544, 564.152 191.415, 564.943 192.893 C 565.575 194.075, 565.774 195.557, 565.384 196.187 C 564.995 196.817, 564.553 199.845, 564.403 202.916 C 564.252 205.987, 564.071 208.500, 564.001 208.500 C 563.462 208.500, 563.364 215.518, 563.869 217.879 L 564.500 220.829 583.500 209.881 C 593.950 203.859, 614.046 193.129, 628.158 186.036 L 653.817 173.139 648.437 166.927 C 645.478 163.511, 643.339 160.260, 643.683 159.703 C 644.027 159.147, 643.826 158.990, 643.235 159.355 C 641.891 160.186, 637.796 155.140, 638.668 153.728 C 639.025 153.151, 638.828 152.989, 638.224 153.362 C 637.627 153.731, 636.837 153.546, 636.470 152.951 C 636.019 152.222, 635.238 152.380, 634.070 153.437 C 633.117 154.299, 632.078 154.744, 631.760 154.427 C 631.443 154.109, 630.880 154.802, 630.511 155.966 C 630.047 157.426, 629.286 157.908, 628.061 157.519 C 627.083 157.209, 625.750 157.596, 625.100 158.379 C 623.967 159.745, 619.316 161.507, 617.750 161.164 C 617.337 161.074, 617 161.498, 617 162.107 C 617 162.716, 616.354 162.966, 615.565 162.663 C 614.775 162.360, 613.983 162.550, 613.805 163.085 C 613.627 163.620, 612.135 164.157, 610.490 164.279 C 607.806 164.477, 607.500 164.203, 607.500 161.598 C 607.500 159.257, 608.225 158.320, 611.250 156.750 C 613.313 155.680, 615 154.371, 615 153.843 C 615 153.314, 615.450 153.160, 616 153.500 C 616.550 153.840, 617 153.641, 617 153.059 C 617 152.477, 617.563 152.112, 618.250 152.250 C 618.938 152.387, 619.387 151.938, 619.250 151.250 C 619.105 150.524, 620.020 150, 621.433 150 C 622.987 150, 624.094 149.278, 624.500 148 C 624.849 146.900, 625.962 146, 626.974 146 C 629.527 146, 628.577 142.895, 624.929 139.318 C 623.349 137.768, 622.031 136.050, 622.001 135.500 C 621.925 134.126, 615.206 127, 613.987 127 C 613.444 127, 613 127.441, 613 127.981 C 613 128.520, 611.924 129.232, 610.610 129.562 C 609.295 129.892, 606.976 131.459, 605.457 133.045 C 603.937 134.631, 602.326 135.701, 601.876 135.424 C 601.427 135.146, 600.780 136.029, 600.439 137.387 C 600.098 138.744, 599.208 140.090, 598.461 140.377 C 597.582 140.714, 597.299 140.386, 597.658 139.449 C 598.001 138.554, 597.599 138, 596.607 138 C 595.723 138, 594.944 137.550, 594.875 137 C 594.806 136.450, 594.669 135.438, 594.569 134.750 C 594.335 133.129, 597.828 128, 599.167 128 C 600.302 128, 609 119.117, 609 117.958 C 609 117.559, 608.055 116.986, 606.899 116.684 C 605.744 116.382, 605.082 115.677, 605.427 115.117 C 605.773 114.558, 605.143 113.612, 604.028 113.015 C 602.913 112.418, 602 111.476, 602 110.922 C 602 110.367, 599.743 107.835, 596.984 105.294 C 593.405 101.997, 592.133 100.157, 592.541 98.870 C 592.965 97.535, 592.449 96.900, 590.557 96.425 C 589.151 96.072, 588 95.402, 588 94.937 C 588 94.051, 583.261 89, 582.430 89 C 582.166 89, 581.512 90.154, 580.975 91.565 M 1502.244 95.746 C 1501.553 95.980, 1501.242 96.582, 1501.553 97.085 C 1501.864 97.588, 1501.641 98, 1501.059 98 C 1500.477 98, 1500 98.675, 1500 99.500 C 1500 100.325, 1499.325 101, 1498.500 101 C 1497.675 101, 1497 101.477, 1497 102.059 C 1497 102.641, 1496.597 102.869, 1496.105 102.565 C 1495.612 102.260, 1494.952 102.684, 1494.636 103.506 C 1494.321 104.328, 1493.249 105, 1492.254 105 C 1490.145 105, 1484.033 110.282, 1483.930 112.194 C 1483.891 112.912, 1483.491 112.600, 1483.040 111.500 C 1482.284 109.656, 1482.130 109.728, 1481.065 112.433 C 1479.823 115.587, 1473.315 121.890, 1471.229 121.958 C 1470.529 121.981, 1469.475 123.057, 1468.887 124.349 C 1468.298 125.642, 1466.370 127.266, 1464.604 127.959 C 1462.720 128.698, 1460.856 130.428, 1460.098 132.140 C 1458.634 135.447, 1452.225 140.246, 1450.583 139.264 C 1449.987 138.908, 1450.137 139.400, 1450.914 140.359 C 1452.170 141.905, 1452.085 142.165, 1450.164 142.667 C 1448.974 142.979, 1448 143.672, 1448 144.208 C 1448 145.248, 1445.846 148.213, 1439.646 155.704 C 1437.527 158.266, 1435.309 161.423, 1434.718 162.719 C 1434.076 164.128, 1433.078 164.860, 1432.238 164.538 C 1430.414 163.838, 1431.151 166.122, 1433.060 167.081 C 1453.264 177.235, 1502.070 201, 1502.719 201 C 1503.206 201, 1503.727 197.077, 1503.877 192.283 C 1504.027 187.489, 1504.373 183.206, 1504.645 182.766 C 1504.917 182.325, 1504.841 179.573, 1504.475 176.649 C 1503.861 171.729, 1503.556 171.241, 1500.380 170.093 C 1498.493 169.410, 1495.030 168.970, 1492.684 169.114 C 1490.338 169.259, 1487.895 169.053, 1487.255 168.658 C 1486.615 168.262, 1484.966 168.221, 1483.590 168.567 C 1481.478 169.097, 1480.982 168.778, 1480.417 166.524 C 1480.048 165.055, 1480.188 163.412, 1480.729 162.871 C 1482.320 161.280, 1493.475 160.090, 1497.670 161.063 C 1504.083 162.552, 1504.841 162.319, 1505.202 158.750 C 1505.639 154.420, 1504.195 149.988, 1502.552 150.618 C 1501.841 150.891, 1500.970 150.363, 1500.617 149.445 C 1500.097 148.089, 1499.696 148.007, 1498.488 149.010 C 1497.275 150.017, 1497 149.946, 1497 148.622 C 1497 147.186, 1495.160 146.465, 1492.645 146.917 C 1492.174 147.001, 1491.124 146.518, 1490.311 145.843 C 1489.498 145.169, 1487.916 144.549, 1486.795 144.466 C 1485.674 144.384, 1484.334 143.561, 1483.817 142.637 C 1483.300 141.714, 1482.455 141.219, 1481.939 141.538 C 1481.422 141.857, 1481 141.431, 1481 140.590 C 1481 139.680, 1480.425 139.283, 1479.577 139.609 C 1478.081 140.183, 1476 137.260, 1476 134.585 C 1476 133.320, 1476.864 133.151, 1480.750 133.657 C 1483.362 133.998, 1485.955 134.630, 1486.512 135.063 C 1487.069 135.496, 1490.145 136.831, 1493.349 138.029 C 1496.552 139.228, 1500.372 140.834, 1501.837 141.598 C 1503.302 142.362, 1504.725 142.990, 1505 142.994 C 1505.464 142.999, 1505.464 113.728, 1505 111.500 C 1504.489 109.047, 1504.557 101.452, 1505.094 101 C 1506.148 100.112, 1503.542 95.307, 1502.244 95.746 M 997.500 108.045 C 875.941 115.095, 757.097 146.234, 648.014 199.617 C 608.229 219.086, 562.071 245.568, 561.031 249.520 C 560.739 250.632, 559.727 252.623, 558.783 253.946 C 557.232 256.118, 556.802 256.231, 554.341 255.110 C 551.751 253.930, 550.825 254.402, 535.564 264.684 C 506.021 284.589, 474.319 308.989, 447.500 332.461 C 314.588 448.786, 218.347 599.958, 169.422 769.254 C 152.079 829.268, 142.084 884.446, 136.321 952 C 134.091 978.138, 133.791 1060.147, 135.827 1087 C 149.543 1267.919, 212.305 1434.618, 320.314 1577 C 346.002 1610.862, 369.030 1637.116, 401.954 1670.071 C 431.010 1699.156, 449.255 1715.645, 476.500 1737.441 C 567.710 1810.411, 669.120 1864.230, 779.950 1898.485 C 916.398 1940.657, 1060.887 1950.030, 1203.673 1925.971 C 1290.709 1911.306, 1374.417 1884.267, 1454.500 1844.951 C 1604.397 1771.361, 1733.747 1655.181, 1823.527 1513.500 C 1931.042 1343.833, 1979.820 1143.610, 1962.450 943.263 C 1946.374 757.846, 1873.410 580.350, 1754.543 437.500 C 1718.394 394.058, 1673.135 349.161, 1629.500 313.457 C 1591.028 281.978, 1545.596 250.835, 1501.804 225.924 C 1472.137 209.047, 1421.336 184, 1416.773 184 C 1415.693 184, 1413.532 183.091, 1411.971 181.979 C 1406.104 177.802, 1366.098 162.372, 1333.426 151.686 C 1264.025 128.986, 1196.162 115.670, 1115.500 108.924 C 1098.746 107.522, 1017.006 106.914, 997.500 108.045 M 1284.962 170.846 C 1284.263 171.079, 1282.123 172.334, 1280.206 173.635 C 1278.289 174.936, 1275.996 176.004, 1275.110 176.009 C 1274.225 176.014, 1272.437 177.364, 1271.137 179.009 C 1269.838 180.654, 1268.343 182, 1267.816 182 C 1265.113 182, 1262.541 188.807, 1262.714 195.500 C 1262.932 203.898, 1274.782 216.986, 1282.178 216.996 C 1284.673 217, 1297.091 210.471, 1297.833 208.766 C 1298.017 208.345, 1299.029 208, 1300.083 208 C 1301.138 208, 1302.002 207.438, 1302.005 206.750 C 1302.008 206.063, 1304.313 203.278, 1307.127 200.563 L 1312.244 195.626 1311.713 189.775 C 1311.422 186.558, 1310.628 183.256, 1309.949 182.438 C 1309.270 181.621, 1308.992 180.675, 1309.331 180.336 C 1310.149 179.518, 1304.351 172.258, 1301.782 170.883 C 1300.212 170.043, 1299.932 170.081, 1300.534 171.055 C 1301.087 171.950, 1300.907 172.056, 1299.905 171.426 C 1298.465 170.521, 1287.244 170.085, 1284.962 170.846 M 815 175.946 C 814.175 176.340, 812.001 177.414, 810.169 178.331 C 808.337 179.249, 806.199 180, 805.419 180 C 804.639 180, 804 180.750, 804 181.667 C 804 182.583, 803.719 183.053, 803.377 182.710 C 802.230 181.563, 796 187.175, 795.985 189.369 C 795.967 191.849, 794.649 194.241, 793.427 194.011 C 790.896 193.536, 791.055 207.187, 793.642 212.399 C 795.610 216.367, 804.857 225, 807.139 225 C 808.098 225, 809.160 225.450, 809.500 226 C 810.446 227.531, 813 227.189, 813 225.531 C 813 224.631, 813.586 224.287, 814.513 224.643 C 815.345 224.963, 816.695 224.668, 817.513 223.989 C 818.699 223.005, 819 223.018, 819 224.052 C 819 224.861, 819.870 224.532, 821.314 223.174 C 822.587 221.978, 823.970 221, 824.386 221 C 824.802 221, 825.818 220.325, 826.643 219.500 C 827.468 218.675, 827.773 217.999, 827.321 217.999 C 826.870 217.998, 827.807 216.873, 829.406 215.499 C 831.004 214.124, 831.950 213, 831.510 213 C 831.069 213, 831.943 211.856, 833.452 210.457 C 835.541 208.521, 836.048 207.329, 835.579 205.457 C 835.226 204.052, 835.398 203, 835.981 203 C 836.541 203, 836.981 200.863, 836.958 198.250 C 836.905 192.391, 834.711 182.622, 833.679 183.654 C 833.262 184.071, 832.661 183.420, 832.344 182.206 C 832.026 180.993, 831.328 180, 830.791 180 C 830.254 180, 828.679 179.106, 827.290 178.014 C 825.901 176.921, 824.368 176.273, 823.882 176.573 C 823.397 176.873, 822.457 176.782, 821.792 176.372 C 820.078 175.312, 816.760 175.104, 815 175.946 M 1640.500 418 C 1640.840 418.550, 1641.316 419, 1641.559 419 C 1641.802 419, 1642 418.550, 1642 418 C 1642 417.450, 1641.523 417, 1640.941 417 C 1640.359 417, 1640.160 417.450, 1640.500 418 M 1198.466 454.866 C 1198.266 455.067, 1192.821 455.400, 1186.367 455.605 C 1178.367 455.860, 1174.377 456.380, 1173.831 457.239 C 1173.248 458.158, 1173.026 458.177, 1173.015 457.307 C 1173.006 456.546, 1171.642 456.217, 1169.250 456.399 C 1167.188 456.557, 1164.713 456.290, 1163.750 455.807 C 1162.645 455.253, 1162 455.311, 1162 455.965 C 1162 457.273, 1158.321 457.329, 1157.520 456.033 C 1157.174 455.472, 1153.475 455.268, 1148.711 455.547 C 1144.195 455.811, 1137.237 455.998, 1133.250 455.961 C 1128.653 455.919, 1126 456.293, 1126 456.983 C 1126 457.747, 1125.427 457.764, 1124.072 457.038 C 1122.945 456.436, 1119.305 456.252, 1115.322 456.596 C 1111.570 456.920, 1106.833 457.330, 1104.796 457.505 C 1102.759 457.681, 1100.622 458.116, 1100.046 458.471 C 1099.471 458.827, 1099 458.641, 1099 458.059 C 1099 456.712, 1091.327 456.661, 1090.498 458.003 C 1090.122 458.612, 1089.216 458.661, 1088.189 458.128 C 1087.260 457.646, 1084.025 457.589, 1081 458.002 C 1077.975 458.415, 1075.009 458.362, 1074.408 457.885 C 1073.807 457.408, 1073.125 457.208, 1072.893 457.441 C 1072.338 457.995, 1057.872 459.004, 1046.500 459.281 C 1041.550 459.401, 1037.169 459.950, 1036.765 460.500 C 1036.304 461.128, 1036.025 461.054, 1036.015 460.302 C 1036.004 459.403, 1035.244 459.367, 1032.969 460.161 C 1031.302 460.742, 1029.102 460.998, 1028.080 460.731 C 1027.058 460.464, 1025.647 460.600, 1024.944 461.035 C 1024.242 461.469, 1022.633 461.431, 1021.369 460.950 C 1020.043 460.446, 1018.838 460.453, 1018.521 460.965 C 1018.219 461.454, 1014.614 461.801, 1010.510 461.736 C 1006.407 461.671, 1002.738 461.929, 1002.358 462.309 C 1001.978 462.689, 1000.362 463, 998.768 463 C 997.173 463, 994.969 463.481, 993.870 464.069 C 992.442 464.834, 991.494 464.825, 990.545 464.038 C 989.696 463.333, 986.929 463.164, 982.859 463.569 C 979.362 463.916, 974.904 464.316, 972.953 464.457 C 971.002 464.597, 968.367 465.269, 967.096 465.949 C 965.425 466.843, 964.483 466.883, 963.693 466.093 C 963.092 465.492, 961.735 465, 960.678 465 C 959.052 465, 958.954 465.240, 960.046 466.555 C 961.197 467.942, 961.039 467.975, 958.597 466.862 C 956.393 465.858, 955.702 465.864, 955.068 466.891 C 954.461 467.872, 954.134 467.791, 953.654 466.541 C 953.127 465.167, 952.677 465.107, 950.765 466.158 C 947.045 468.201, 944.981 468.234, 945.683 466.238 C 946.176 464.835, 946.039 464.737, 944.971 465.726 C 944.039 466.590, 943.275 466.643, 942.388 465.907 C 941.578 465.235, 940.479 465.195, 939.314 465.795 C 938.316 466.309, 936.922 466.523, 936.216 466.270 C 935.510 466.018, 934.273 466.359, 933.466 467.028 C 932.310 467.988, 931.667 467.969, 930.424 466.937 C 929.363 466.056, 928.627 465.971, 928.174 466.677 C 927.440 467.819, 924.150 467.829, 922.316 466.696 C 921.685 466.305, 920.053 466.409, 918.691 466.927 C 917.329 467.445, 915.312 467.633, 914.210 467.345 C 913.107 467.056, 911.318 467.295, 910.234 467.875 C 909.150 468.455, 907.966 468.632, 907.603 468.269 C 906.394 467.060, 904.145 467.180, 903.646 468.480 C 903.259 469.488, 902.266 469.526, 899.022 468.660 C 896.222 467.913, 894.667 467.887, 894.196 468.580 C 893.813 469.142, 891.565 469.590, 889.199 469.574 C 886.469 469.556, 884.558 470.085, 883.965 471.023 C 883.335 472.019, 883.026 472.093, 883.015 471.250 C 883.007 470.563, 882.073 470, 880.941 470 C 879.809 470, 879.096 470.346, 879.357 470.768 C 879.618 471.191, 878.068 471.369, 875.912 471.163 C 873.756 470.957, 871.206 471.118, 870.246 471.519 C 869.286 471.920, 866.025 472.378, 863 472.537 C 855.703 472.921, 846.621 473.952, 840.645 475.075 C 837.975 475.577, 835.311 475.692, 834.725 475.330 C 834.041 474.907, 833.908 475.317, 834.353 476.477 C 834.903 477.910, 834.768 478.052, 833.699 477.165 C 832.700 476.336, 832.030 476.364, 831.105 477.274 C 830.117 478.245, 829.924 478.188, 830.179 477 C 830.373 476.092, 829.908 475.635, 829 475.841 C 828.175 476.029, 823.675 476.377, 819 476.614 C 808.029 477.171, 801.500 477.658, 801.500 477.920 C 801.500 478.034, 800.034 478.272, 798.242 478.448 C 796.450 478.625, 794.312 479.326, 793.492 480.007 C 792.380 480.929, 792 480.944, 792 480.066 C 792 478.841, 782.742 479.086, 774.500 480.529 C 772.300 480.914, 769.182 481.189, 767.571 481.141 C 765.960 481.092, 764.076 481.522, 763.385 482.096 C 762.511 482.821, 761.520 482.813, 760.133 482.071 C 758.620 481.262, 757.789 481.354, 756.688 482.454 C 755.891 483.252, 755.002 483.669, 754.714 483.381 C 753.712 482.379, 742.868 482.865, 741.534 483.972 C 740.787 484.592, 739.035 484.796, 737.583 484.431 C 736.148 484.071, 734.417 484.197, 733.737 484.711 C 732.080 485.963, 728.182 486.103, 727.461 484.936 C 726.756 483.796, 723 483.681, 723 484.800 C 723 485.240, 721.987 485.650, 720.750 485.712 C 719.513 485.774, 713.732 486.020, 707.903 486.258 C 702.075 486.497, 696.900 486.904, 696.403 487.163 C 695.907 487.422, 690.636 487.577, 684.691 487.509 C 678.745 487.440, 673.652 487.754, 673.371 488.208 C 673.091 488.662, 672.369 488.728, 671.766 488.356 C 670.328 487.467, 664.914 487.050, 665.416 487.867 C 665.630 488.215, 662.516 488.502, 658.495 488.505 C 654.474 488.508, 651.377 488.199, 651.613 487.818 C 651.848 487.437, 650.794 487.360, 649.270 487.648 C 643.735 488.693, 638.483 488.670, 637.731 487.597 C 637.211 486.855, 636.512 487.088, 635.572 488.317 C 633.839 490.582, 632.934 490.634, 631.759 488.534 C 631.057 487.280, 630.517 487.156, 629.483 488.014 C 628.486 488.842, 627.579 488.845, 626.049 488.026 C 624.430 487.160, 623.853 487.219, 623.441 488.293 C 622.884 489.745, 619.162 489.862, 615.125 488.555 C 613.517 488.034, 612.473 488.224, 611.890 489.143 C 611.211 490.216, 611.027 490.152, 611.015 488.838 C 611.001 487.259, 608.778 486.889, 607.426 488.241 C 607.079 488.588, 605.720 488.464, 604.406 487.964 C 601.744 486.952, 599 487.634, 599 489.307 C 599 490.038, 598.603 490.003, 597.800 489.200 C 596.359 487.759, 593.625 487.584, 594.493 488.989 C 595.303 490.300, 591.763 488.987, 590.674 487.573 C 590.099 486.827, 589.694 486.878, 589.343 487.742 C 588.976 488.645, 588.315 488.704, 586.919 487.957 C 585.864 487.392, 585 487.298, 585 487.748 C 585 488.727, 581.418 488.632, 578.149 487.567 C 576.796 487.126, 575.363 487.237, 574.771 487.829 C 574.067 488.533, 573.112 488.485, 571.741 487.678 C 570.182 486.761, 569.638 486.777, 569.286 487.750 C 568.749 489.234, 564 489.451, 564 487.992 C 564 487.380, 563.246 487.454, 562.081 488.181 C 560.583 489.117, 559.835 489.108, 558.670 488.141 C 557.731 487.362, 556.952 487.269, 556.568 487.890 C 555.958 488.877, 552.876 488.660, 550.996 487.498 C 550.448 487.159, 549.993 487.471, 549.985 488.191 C 549.972 489.265, 549.821 489.266, 549.143 488.197 C 548.689 487.481, 547.908 487.007, 547.408 487.145 C 546.909 487.283, 545.466 487.045, 544.202 486.616 C 542.826 486.148, 541.366 486.281, 540.564 486.947 C 539.580 487.764, 538.564 487.759, 536.738 486.927 C 534.916 486.096, 533.702 486.089, 532.187 486.900 C 530.953 487.560, 529.890 487.632, 529.548 487.077 C 529.232 486.567, 527.550 486.329, 525.809 486.549 C 524.069 486.770, 521.963 486.399, 521.130 485.725 C 520.044 484.846, 519.816 484.833, 520.324 485.681 C 520.714 486.330, 520.575 487.144, 520.016 487.490 C 519.457 487.835, 518.993 487.529, 518.985 486.809 C 518.973 485.821, 518.747 485.852, 518.061 486.936 C 517.308 488.126, 516.883 488.147, 515.576 487.063 C 514.304 486.007, 513.707 485.999, 512.477 487.019 C 511.231 488.053, 511.051 488.030, 511.488 486.891 C 511.911 485.787, 510.575 485.490, 505.011 485.452 C 501.155 485.425, 498 485.766, 498 486.210 C 498 486.654, 497.133 486.476, 496.074 485.814 C 494.630 484.912, 493.535 484.891, 491.697 485.728 C 489.889 486.552, 488.951 486.551, 488.123 485.723 C 487.311 484.911, 486.697 484.903, 485.908 485.692 C 485.300 486.300, 483.139 486.560, 481.037 486.278 C 478.877 485.988, 476.976 486.230, 476.598 486.842 C 476.234 487.431, 475.259 487.653, 474.431 487.335 C 473.603 487.017, 472.042 487.557, 470.963 488.534 C 469.883 489.511, 469 489.860, 469 489.309 C 469 488.759, 467.538 488.409, 465.750 488.532 C 461.395 488.831, 454 491.917, 454 493.435 C 454 494.219, 452.934 494.497, 451.012 494.215 C 449.369 493.974, 447.339 494.040, 446.502 494.361 C 445.664 494.682, 444.646 494.990, 444.240 495.046 C 443.833 495.101, 442.107 496.007, 440.403 497.060 C 438.700 498.112, 437.066 498.732, 436.771 498.438 C 436.476 498.143, 434.594 498.824, 432.587 499.951 C 430.581 501.078, 428.378 502, 427.692 502 C 427.006 502, 423.870 503.336, 420.722 504.969 C 417.575 506.602, 415 507.672, 415 507.347 C 415 507.021, 414.438 507.216, 413.750 507.780 C 413.063 508.343, 410.595 509.314, 408.267 509.936 C 405.939 510.559, 403.569 511.936, 403.002 512.997 C 402.431 514.063, 401.341 514.684, 400.563 514.386 C 399.789 514.089, 398.192 514.362, 397.013 514.993 C 395.835 515.624, 393.929 516.321, 392.779 516.543 C 391.628 516.764, 389.716 517.858, 388.529 518.973 C 387.342 520.088, 385.986 521, 385.515 521 C 384.402 521, 372.890 532.975, 371.199 535.892 C 369.609 538.635, 368.487 552.873, 368.749 567 C 369.091 585.451, 368.936 606.360, 368.422 611 C 366.332 629.883, 366.048 641, 367.573 644.267 C 368.283 645.789, 368.472 646.792, 367.994 646.496 C 367.516 646.201, 367.150 647.768, 367.180 649.980 C 367.211 652.191, 367.536 654, 367.903 654 C 368.270 654, 368.413 656.700, 368.221 660 C 368.028 663.300, 368.237 666.001, 368.685 666.002 C 369.133 666.002, 369.540 668.140, 369.589 670.752 C 369.639 673.363, 369.944 681.913, 370.268 689.750 L 370.857 704 363.179 704.185 C 353.521 704.417, 352.696 704.483, 346 705.554 C 338.512 706.753, 338.565 706.743, 338 706.968 C 337.725 707.077, 335.925 707.340, 334 707.552 C 332.075 707.764, 328.250 708.432, 325.500 709.037 C 322.750 709.642, 319.712 710.203, 318.750 710.283 C 317.788 710.363, 317 710.735, 317 711.108 C 317 711.482, 315.988 711.802, 314.750 711.818 C 309.852 711.882, 302.460 713.349, 301.765 714.395 C 301.231 715.199, 301.026 715.196, 301.015 714.385 C 300.996 713.005, 291.654 713.607, 291.169 715.020 C 290.959 715.634, 290.168 715.625, 288.992 714.996 C 287.976 714.452, 286.550 714.193, 285.822 714.420 C 285.095 714.647, 283.292 715.097, 281.817 715.419 C 277.881 716.278, 277.232 719.559, 280.415 722.509 C 281.837 723.826, 283.007 724.588, 283.015 724.202 C 283.024 723.816, 283.423 724.119, 283.903 724.877 C 284.581 725.947, 288.303 726.265, 300.637 726.306 C 316.754 726.360, 321.442 726.030, 331.095 724.159 C 343.114 721.829, 349.151 721.531, 378 721.843 C 383.225 721.899, 388.818 721.946, 390.429 721.947 C 392.040 721.947, 393.953 721.454, 394.679 720.851 C 395.675 720.025, 396 720.128, 396 721.268 C 396 723.077, 402.591 724.186, 405.250 722.825 C 406.425 722.224, 407 722.310, 407 723.087 C 407 723.917, 407.431 723.887, 408.524 722.980 C 409.362 722.284, 410.337 722.004, 410.691 722.357 C 411.044 722.711, 410.782 723, 410.108 723 C 409.434 723, 409.123 723.389, 409.417 723.865 C 409.711 724.341, 411.200 724.585, 412.726 724.407 C 414.252 724.229, 416.939 724.472, 418.698 724.947 C 420.903 725.542, 422.043 725.451, 422.369 724.655 C 422.629 724.020, 422.878 724.282, 422.921 725.239 C 422.973 726.381, 423.772 726.946, 425.250 726.886 C 426.488 726.835, 428.962 727.259, 430.750 727.827 C 432.538 728.395, 434 728.612, 434 728.308 C 434 728.004, 434.635 728.282, 435.411 728.926 C 436.397 729.745, 437.021 729.775, 437.483 729.027 C 437.901 728.352, 438.763 728.712, 439.822 730.005 C 440.957 731.390, 443.200 732.252, 446.750 732.666 C 450.983 733.160, 452 733.639, 452 735.139 C 452 736.307, 452.715 737, 453.918 737 C 456.837 737, 459 738.068, 459 739.509 C 459 740.222, 460.238 741.256, 461.750 741.809 C 463.262 742.361, 465.842 743.868, 467.482 745.156 C 473.076 749.553, 487.008 764.494, 487.611 766.743 C 487.943 767.977, 488.583 768.758, 489.035 768.479 C 489.486 768.199, 490.144 768.877, 490.495 769.985 C 490.847 771.093, 491.558 772, 492.076 772 C 492.593 772, 492.471 772.875, 491.803 773.944 C 490.807 775.539, 490.898 776.230, 492.311 777.792 C 493.265 778.845, 493.870 780.768, 493.666 782.098 C 493.464 783.419, 493.648 785.175, 494.076 786 C 496.542 790.756, 497.065 793.911, 495.690 795.750 C 495.090 796.552, 495.188 797.522, 495.964 798.456 C 496.628 799.257, 496.882 800.382, 496.527 800.956 C 496.172 801.530, 496.610 802, 497.500 802 C 498.390 802, 498.848 802.437, 498.517 802.972 C 498.187 803.506, 498.723 805.176, 499.708 806.683 C 500.694 808.190, 500.938 809.076, 500.250 808.652 C 499.355 808.100, 499 808.750, 499 810.941 C 499 812.623, 499.398 814, 499.883 814 C 500.369 814, 501.002 814.900, 501.290 816 C 501.577 817.100, 501.477 818, 501.067 818 C 499.946 818, 497.957 822.855, 498.851 823.408 C 499.278 823.672, 499.529 826.356, 499.409 829.373 C 499.245 833.496, 499.568 835.004, 500.706 835.441 C 501.954 835.920, 501.752 836.637, 499.555 839.517 C 498.089 841.439, 497.166 843.459, 497.504 844.006 C 497.842 844.553, 497.633 845, 497.040 845 C 496.373 845, 496.216 846.011, 496.627 847.649 C 497.095 849.514, 496.952 850.089, 496.146 849.590 C 495.058 848.918, 494.589 850.088, 494.908 852.675 C 494.988 853.321, 494.591 854.135, 494.027 854.484 C 493.462 854.833, 493 855.991, 493 857.059 C 493 858.127, 492.550 859, 492 859 C 491.450 859, 491 859.426, 491 859.946 C 491 861.999, 483.295 873.869, 476.825 881.784 C 473.071 886.376, 470 890.606, 470 891.184 C 470 892.160, 466.802 896.358, 461.953 901.750 C 460.840 902.987, 460.162 904, 460.447 904 C 460.732 904, 459.510 905.515, 457.732 907.367 C 455.955 909.219, 452.601 912.706, 450.281 915.117 C 447.960 917.528, 445.035 920.269, 443.781 921.209 C 439.261 924.594, 427.462 934.536, 425.750 936.400 C 424.788 937.448, 424 938.023, 424 937.678 C 424 937.333, 420.738 938.726, 416.750 940.775 C 408.730 944.895, 401.525 948, 399.982 948 C 399.430 948, 396.846 949.003, 394.239 950.229 C 391.633 951.456, 389.050 952.492, 388.500 952.533 C 386.074 952.712, 382 954.291, 382 955.051 C 382 955.510, 381.100 955.712, 380 955.500 C 378.900 955.288, 378 955.481, 378 955.927 C 378 956.374, 375.963 957.310, 373.474 958.007 C 370.985 958.704, 368.709 959.663, 368.415 960.137 C 368.122 960.612, 367.432 961, 366.882 961 C 366.332 961, 366.220 960.438, 366.633 959.750 C 367.196 958.812, 367.024 958.765, 365.942 959.562 C 365.149 960.146, 362.025 961.190, 359 961.882 C 355.975 962.573, 352.600 963.512, 351.500 963.967 C 349.389 964.841, 339.603 966.967, 334.515 967.658 C 332.857 967.883, 329.700 968.708, 327.500 969.492 C 325.300 970.275, 322.150 971.123, 320.500 971.376 C 318.850 971.629, 317.275 971.926, 317 972.036 C 316.725 972.147, 316.115 972.168, 315.645 972.083 C 315.174 971.999, 314.182 972.434, 313.439 973.051 C 312.696 973.668, 311.643 973.897, 311.099 973.561 C 310.191 973, 297.483 975.350, 294 976.724 C 293.175 977.049, 291.971 977.233, 291.325 977.131 C 290.679 977.030, 289.877 977.389, 289.543 977.930 C 289.209 978.470, 288.328 978.679, 287.585 978.394 C 286.842 978.109, 284.571 978.570, 282.539 979.419 C 280.507 980.268, 276.368 981.192, 273.342 981.472 C 270.316 981.752, 267.416 982.243, 266.898 982.563 C 266.380 982.883, 263.470 983.284, 260.431 983.453 C 257.392 983.623, 254.642 984.024, 254.321 984.345 C 254 984.667, 252.955 984.511, 252 984 C 251.045 983.489, 249.942 983.392, 249.549 983.785 C 249.157 984.178, 247.133 984.546, 245.051 984.603 C 238.022 984.795, 232.280 991.669, 236.594 994.729 C 237.642 995.472, 240.638 997.659, 243.252 999.587 L 248.004 1003.094 257.252 1002.604 C 265.987 1002.142, 268.907 1001.762, 272.830 1000.581 C 274.719 1000.012, 277.705 999.456, 286.895 997.958 C 290.412 997.384, 294.012 996.544, 294.895 996.090 C 295.778 995.636, 300.212 994.674, 304.750 993.952 C 309.287 993.230, 313 992.285, 313 991.851 C 313 991.418, 313.622 991.302, 314.383 991.593 C 316.654 992.465, 327.131 989.027, 326.321 987.675 C 325.834 986.864, 326.091 986.885, 327.150 987.741 C 327.994 988.424, 328.964 988.702, 329.307 988.360 C 329.650 988.017, 332.057 987.559, 334.657 987.343 C 337.257 987.126, 341.338 986.285, 343.727 985.474 C 346.116 984.664, 349.378 984, 350.976 984 C 352.574 984, 354.141 983.580, 354.458 983.067 C 354.775 982.554, 356.264 982.155, 357.767 982.179 C 359.270 982.204, 363.634 981.069, 367.463 979.659 C 373.847 977.307, 377.356 976.926, 374.100 978.938 C 373.224 979.479, 372.620 982.499, 372.359 987.634 C 372.140 991.960, 371.667 1000.225, 371.308 1006 C 370.950 1011.775, 370.668 1018.300, 370.682 1020.500 C 370.728 1027.660, 372.014 1051.409, 372.551 1055 C 372.838 1056.925, 373.205 1060.525, 373.365 1063 C 373.547 1065.793, 374.102 1067.405, 374.829 1067.250 C 376.163 1066.965, 376.427 1068.618, 375.170 1069.395 C 374.197 1069.996, 374.518 1078.412, 375.580 1080.130 C 376.006 1080.818, 375.880 1081.044, 375.279 1080.673 C 374.016 1079.892, 374.668 1087.917, 376.281 1093 C 377.856 1097.965, 377.954 1099, 376.852 1099 C 376.319 1099, 376.099 1099.352, 376.365 1099.781 C 376.821 1100.519, 377.907 1112.498, 378.515 1123.500 C 378.822 1129.060, 379.186 1130.907, 380.337 1132.750 C 380.786 1133.468, 380.646 1134, 380.009 1134 C 379.286 1134, 379.212 1134.557, 379.797 1135.602 C 380.291 1136.484, 380.381 1138.918, 379.998 1141.013 C 379.450 1144.009, 379.591 1144.710, 380.661 1144.300 C 381.590 1143.943, 381.920 1144.439, 381.703 1145.863 C 381.528 1147.010, 381.077 1148.256, 380.701 1148.632 C 380.325 1149.008, 380.576 1150.006, 381.259 1150.850 C 381.941 1151.694, 382.014 1152.093, 381.419 1151.737 C 380.035 1150.910, 379.866 1158.508, 381.100 1166.028 C 381.599 1169.069, 382.235 1174.019, 382.512 1177.028 C 382.789 1180.038, 383.206 1183.850, 383.439 1185.500 C 384.079 1190.045, 384.907 1197.865, 385.398 1204 C 385.641 1207.025, 385.931 1209.612, 386.044 1209.750 C 386.158 1209.888, 386.313 1210.338, 386.390 1210.750 C 386.467 1211.162, 386.860 1212.017, 387.262 1212.650 C 387.665 1213.282, 387.949 1214.857, 387.894 1216.150 C 387.839 1217.442, 388.246 1219.917, 388.798 1221.649 C 389.488 1223.813, 389.471 1225.129, 388.744 1225.856 C 387.998 1226.602, 388.064 1227.372, 388.965 1228.458 C 389.669 1229.306, 389.852 1230.014, 389.372 1230.032 C 388.893 1230.049, 389.175 1230.612, 390 1231.282 C 390.825 1231.952, 391.612 1234.186, 391.749 1236.248 C 392.152 1242.307, 393.487 1245.403, 395.239 1244.343 C 395.645 1244.097, 395.681 1244.668, 395.319 1245.612 C 394.880 1246.756, 395.040 1247.093, 395.801 1246.623 C 396.503 1246.189, 397.192 1246.918, 397.594 1248.519 C 398.010 1250.174, 398.747 1250.927, 399.623 1250.591 C 400.509 1250.251, 401 1250.775, 401 1252.063 C 401 1254.280, 403.099 1255.398, 408.250 1255.923 C 408.663 1255.966, 408.929 1256.338, 408.841 1256.750 C 408.512 1258.303, 410.267 1261, 411.607 1261 C 412.373 1261, 413 1261.450, 413 1262 C 413 1262.550, 413.620 1263, 414.378 1263 C 415.135 1263, 416.315 1263.675, 417 1264.500 C 417.685 1265.325, 418.870 1266, 419.633 1266 C 420.397 1266, 423.012 1266.935, 425.444 1268.079 C 427.876 1269.222, 430.532 1270.255, 431.345 1270.374 C 432.158 1270.494, 435.226 1272.119, 438.162 1273.985 C 441.098 1275.852, 443.885 1277.278, 444.355 1277.154 C 444.826 1277.031, 445.838 1277.451, 446.605 1278.087 C 447.683 1278.981, 448.008 1278.933, 448.033 1277.872 C 448.055 1276.993, 448.726 1277.290, 449.901 1278.697 C 451.227 1280.286, 453.014 1280.960, 456.359 1281.134 C 458.903 1281.265, 463.022 1282.355, 465.514 1283.556 C 468.005 1284.757, 470.263 1285.384, 470.531 1284.951 C 470.978 1284.226, 476.845 1286.569, 478 1287.934 C 478.876 1288.969, 484 1288.830, 484 1287.772 C 484 1287.204, 484.693 1287.330, 485.569 1288.057 C 486.575 1288.892, 490.613 1289.433, 496.819 1289.564 C 508.740 1289.816, 508.822 1289.827, 507.097 1290.919 C 506.047 1291.583, 506.299 1291.822, 508.097 1291.865 C 512.769 1291.975, 514.507 1292.313, 515.105 1293.225 C 515.437 1293.733, 516.450 1293.407, 517.355 1292.502 C 518.274 1291.583, 519 1291.356, 519 1291.988 C 519 1292.609, 519.470 1292.828, 520.044 1292.473 C 520.618 1292.118, 521.744 1292.373, 522.546 1293.038 C 523.380 1293.730, 525.253 1293.999, 526.915 1293.667 C 528.829 1293.284, 530.237 1293.580, 531.026 1294.531 C 531.686 1295.327, 532.611 1295.741, 533.080 1295.451 C 534.883 1294.336, 542 1294.103, 542 1295.158 C 542 1295.762, 543.082 1296.026, 544.470 1295.761 C 545.828 1295.501, 546.702 1295.674, 546.411 1296.144 C 546.120 1296.615, 546.359 1297, 546.941 1297 C 547.523 1297, 548 1296.592, 548 1296.094 C 548 1295.595, 548.946 1295.435, 550.102 1295.737 C 551.334 1296.059, 552.570 1295.710, 553.087 1294.893 C 553.789 1293.785, 553.973 1293.865, 553.985 1295.281 C 553.996 1296.618, 554.811 1297.066, 557.250 1297.077 C 559.038 1297.085, 562.525 1297.201, 565 1297.335 C 567.475 1297.469, 570.746 1297.252, 572.269 1296.854 C 574.171 1296.356, 574.827 1296.471, 574.363 1297.222 C 573.918 1297.942, 574.443 1298.117, 575.905 1297.735 C 577.362 1297.354, 578.320 1297.670, 578.698 1298.655 C 579.153 1299.841, 580.380 1300.026, 584.554 1299.539 C 587.922 1299.145, 590.077 1299.316, 590.506 1300.010 C 590.984 1300.783, 591.586 1300.759, 592.589 1299.926 C 593.490 1299.178, 594.452 1299.093, 595.250 1299.689 C 595.938 1300.202, 598.525 1300.565, 601 1300.495 C 603.475 1300.425, 606.310 1300.763, 607.299 1301.245 C 608.289 1301.728, 610.989 1302.334, 613.299 1302.592 C 615.610 1302.851, 618.048 1303.253, 618.718 1303.487 C 619.388 1303.721, 620.221 1303.452, 620.569 1302.888 C 620.917 1302.325, 621.944 1302.175, 622.851 1302.557 C 623.758 1302.938, 627.200 1303.417, 630.500 1303.621 C 633.800 1303.826, 639.313 1304.349, 642.750 1304.783 C 646.188 1305.218, 649 1305.317, 649 1305.004 C 649 1304.238, 653.817 1304.484, 654.624 1305.291 C 654.976 1305.642, 655.991 1305.572, 656.881 1305.135 C 658.491 1304.345, 660.514 1304.385, 668.876 1305.373 C 671.845 1305.724, 673.695 1305.448, 674.628 1304.515 C 676.034 1303.109, 676.183 1303.132, 685.323 1306.128 C 687.697 1306.906, 689.403 1307.019, 689.823 1306.428 C 690.196 1305.904, 693.278 1305.493, 696.673 1305.516 C 700.067 1305.539, 702.669 1305.273, 702.453 1304.924 C 702.237 1304.575, 703.167 1304.500, 704.519 1304.759 C 705.871 1305.017, 706.730 1305.627, 706.429 1306.114 C 706.128 1306.601, 706.786 1307, 707.891 1307 C 708.996 1307, 710.307 1306.274, 710.804 1305.386 C 711.581 1303.997, 712.039 1303.957, 714.103 1305.099 C 715.422 1305.828, 716.950 1306.284, 717.500 1306.111 C 719.842 1305.377, 724.156 1305.443, 724.636 1306.219 C 725.244 1307.203, 731.965 1306.162, 733.661 1304.821 C 734.385 1304.248, 735.077 1304.315, 735.499 1304.999 C 735.946 1305.722, 738.274 1305.871, 742.338 1305.436 C 748.399 1304.788, 750.531 1304.738, 754.500 1305.149 C 758.853 1305.601, 763.100 1304.971, 762.479 1303.966 C 762.128 1303.397, 763.303 1303.822, 765.091 1304.909 C 767.488 1306.367, 768.824 1306.630, 770.171 1305.908 C 771.177 1305.370, 772.007 1305.283, 772.015 1305.715 C 772.024 1306.147, 772.467 1305.825, 773 1305 C 773.776 1303.800, 773.972 1303.778, 773.985 1304.889 C 773.997 1305.990, 775.090 1306.127, 779.250 1305.551 C 782.138 1305.150, 785.400 1304.901, 786.500 1304.997 C 790.859 1305.378, 791.585 1305.336, 793.875 1304.575 C 795.182 1304.141, 796.012 1304.171, 795.720 1304.643 C 795.051 1305.723, 802.272 1305.568, 804.058 1304.464 C 804.849 1303.975, 805.540 1304.120, 805.774 1304.823 C 806.253 1306.260, 810.641 1306.390, 811.505 1304.992 C 812.105 1304.021, 813.962 1304.170, 818.750 1305.574 C 820.228 1306.007, 821 1305.808, 821 1304.994 C 821 1304.011, 821.310 1304.013, 822.500 1305 C 823.325 1305.685, 824.001 1305.852, 824.002 1305.372 C 824.005 1304.220, 833.331 1304.056, 834.083 1305.194 C 834.414 1305.696, 835.817 1305.640, 837.333 1305.064 C 838.800 1304.506, 840 1304.413, 840 1304.858 C 840 1305.836, 843.060 1305.699, 844.768 1304.644 C 845.445 1304.225, 846 1304.333, 846 1304.884 C 846 1305.923, 847.291 1305.780, 852.678 1304.145 C 854.950 1303.456, 855.982 1303.512, 856.301 1304.342 C 856.753 1305.519, 862.513 1305.821, 863.608 1304.725 C 863.937 1304.396, 865.268 1304.532, 866.567 1305.026 C 867.895 1305.530, 869.164 1305.544, 869.466 1305.056 C 869.761 1304.578, 870.902 1304.423, 872.001 1304.711 C 873.145 1305.010, 874 1304.741, 874 1304.081 C 874 1303.223, 874.532 1303.215, 876.090 1304.048 C 878.576 1305.379, 885.307 1305.447, 889.504 1304.185 C 891.489 1303.587, 894.174 1303.704, 897.419 1304.528 C 902.705 1305.870, 903.795 1305.884, 905.794 1304.636 C 906.505 1304.191, 907.644 1304.290, 908.324 1304.854 C 909.005 1305.419, 911.418 1305.855, 913.687 1305.824 C 915.957 1305.792, 918.418 1306.131, 919.157 1306.575 C 920.226 1307.219, 920.217 1307.035, 919.112 1305.673 C 917.853 1304.121, 917.945 1304.044, 920.103 1304.842 C 921.411 1305.326, 923.723 1305.366, 925.241 1304.931 C 926.906 1304.453, 928 1304.526, 928 1305.114 C 928 1305.649, 928.563 1305.993, 929.250 1305.877 C 929.938 1305.761, 932.075 1305.984, 934 1306.373 C 935.925 1306.763, 939.638 1306.671, 942.250 1306.170 C 944.862 1305.668, 947 1305.598, 947 1306.013 C 947 1306.428, 948.462 1306.624, 950.250 1306.448 C 952.038 1306.272, 953.500 1306.066, 953.500 1305.990 C 953.500 1305.914, 954.513 1305.663, 955.750 1305.432 C 956.987 1305.201, 958 1305.486, 958 1306.065 C 958 1306.657, 958.547 1306.776, 959.250 1306.337 C 961.179 1305.132, 963 1305.067, 963 1306.203 C 963 1306.768, 964.109 1306.503, 965.465 1305.615 C 968.136 1303.865, 969.405 1303.535, 968.628 1304.793 C 968.358 1305.229, 971.067 1305.399, 974.647 1305.172 C 978.430 1304.931, 981.596 1305.196, 982.205 1305.805 C 982.865 1306.465, 984.110 1306.529, 985.560 1305.977 C 987.141 1305.376, 987.994 1305.478, 988.271 1306.300 C 988.574 1307.199, 989.088 1307.159, 990.324 1306.138 C 991.404 1305.247, 992.929 1305.027, 994.737 1305.502 C 998.999 1306.620, 1016.293 1306.912, 1018.189 1305.898 C 1019.232 1305.340, 1020.112 1305.372, 1020.489 1305.982 C 1020.825 1306.525, 1022.089 1306.918, 1023.300 1306.856 C 1024.510 1306.794, 1026.976 1307.034, 1028.779 1307.391 C 1030.583 1307.747, 1032.946 1307.564, 1034.029 1306.984 C 1035.463 1306.217, 1036 1306.245, 1036 1307.087 C 1036 1307.942, 1036.351 1307.954, 1037.342 1307.131 C 1038.080 1306.519, 1038.999 1306.333, 1039.385 1306.718 C 1039.770 1307.103, 1041.866 1307.290, 1044.043 1307.133 C 1046.379 1306.964, 1048 1307.288, 1048 1307.924 C 1048 1308.516, 1049.800 1309, 1052 1309 C 1054.200 1309, 1056 1308.571, 1056 1308.047 C 1056 1307.484, 1058.968 1307.300, 1063.250 1307.598 C 1070.191 1308.080, 1071.519 1308.128, 1077.750 1308.123 C 1083.846 1308.117, 1085 1308.241, 1085 1308.898 C 1085 1309.275, 1086.350 1309.566, 1088 1309.544 C 1089.650 1309.522, 1091 1309.076, 1091 1308.552 C 1091 1308.028, 1091.519 1308.119, 1092.153 1308.753 C 1092.963 1309.563, 1093.873 1309.603, 1095.212 1308.887 C 1096.260 1308.326, 1098.441 1308.158, 1100.059 1308.513 C 1101.896 1308.916, 1103 1308.754, 1103 1308.079 C 1103 1307.486, 1103.498 1307, 1104.107 1307 C 1104.716 1307, 1104.955 1307.675, 1104.638 1308.500 C 1104.243 1309.529, 1104.699 1310, 1106.090 1310 C 1107.206 1310, 1107.910 1309.662, 1107.655 1309.250 C 1107.099 1308.349, 1113.076 1308.236, 1114.500 1309.121 C 1115.050 1309.462, 1118.875 1309.608, 1123 1309.444 C 1127.125 1309.280, 1131.933 1309.642, 1133.684 1310.250 C 1136.017 1311.059, 1137.228 1311.056, 1138.214 1310.238 C 1138.953 1309.624, 1140.896 1309.089, 1142.529 1309.050 C 1144.163 1309.010, 1146.175 1308.952, 1147 1308.920 C 1147.825 1308.888, 1152.438 1309.111, 1157.250 1309.417 C 1162.254 1309.734, 1166 1309.582, 1166 1309.061 C 1166 1307.887, 1176.599 1308.944, 1180.263 1310.483 C 1181.232 1310.891, 1182.582 1310.803, 1183.263 1310.289 C 1184.909 1309.045, 1189.138 1308.870, 1190.487 1309.990 C 1191.091 1310.490, 1192.175 1310.510, 1192.944 1310.035 C 1193.756 1309.533, 1195.088 1309.659, 1196.191 1310.342 C 1197.656 1311.249, 1198.247 1311.201, 1198.922 1310.117 C 1199.653 1308.943, 1200.087 1308.948, 1201.805 1310.151 C 1203.132 1311.080, 1205.660 1311.443, 1209.163 1311.207 C 1216.111 1310.738, 1216.775 1310.745, 1221.455 1311.338 C 1223.852 1311.642, 1226.489 1311.281, 1228.148 1310.423 C 1229.654 1309.644, 1231.120 1309.386, 1231.406 1309.848 C 1231.692 1310.311, 1236.200 1310.548, 1241.423 1310.375 C 1247.134 1310.187, 1251.171 1310.467, 1251.549 1311.079 C 1251.964 1311.751, 1252.657 1311.699, 1253.589 1310.926 C 1254.426 1310.232, 1255 1310.165, 1255 1310.761 C 1255 1311.966, 1258.960 1313.143, 1260.278 1312.328 C 1261.509 1311.568, 1271.002 1311.338, 1271.001 1312.069 C 1271 1312.835, 1285.536 1312.405, 1286.836 1311.601 C 1287.400 1311.253, 1288.107 1311.364, 1288.407 1311.850 C 1288.707 1312.335, 1290.091 1312.514, 1291.482 1312.248 C 1292.873 1311.982, 1294.684 1312.323, 1295.506 1313.005 C 1296.554 1313.875, 1297.374 1313.934, 1298.255 1313.204 C 1298.974 1312.607, 1301.856 1312.384, 1305.005 1312.683 C 1308.027 1312.969, 1312.638 1313.161, 1315.250 1313.110 C 1318.291 1313.051, 1320 1313.443, 1320 1314.200 C 1320 1314.850, 1320.661 1314.509, 1321.468 1313.441 C 1322.276 1312.374, 1322.951 1311.987, 1322.968 1312.583 C 1322.986 1313.179, 1323.563 1313.746, 1324.250 1313.844 C 1333.241 1315.118, 1338.276 1315.436, 1340.413 1314.865 C 1341.908 1314.465, 1343 1314.587, 1343 1315.154 C 1343 1316.218, 1347.169 1315.232, 1348 1313.972 C 1348.275 1313.555, 1349.850 1313.425, 1351.500 1313.684 C 1356.679 1314.495, 1361.393 1314.527, 1364.422 1313.770 C 1366.117 1313.347, 1367.875 1313.481, 1368.608 1314.090 C 1369.493 1314.824, 1370.492 1314.807, 1371.936 1314.034 C 1373.071 1313.427, 1374 1313.299, 1374 1313.751 C 1374 1314.627, 1374.283 1314.673, 1383.500 1315.288 C 1386.800 1315.508, 1390.287 1316.032, 1391.250 1316.451 C 1392.242 1316.884, 1393 1316.791, 1393 1316.238 C 1393 1315.701, 1394.330 1315.417, 1395.956 1315.607 C 1397.582 1315.796, 1399.213 1315.464, 1399.581 1314.869 C 1400.036 1314.132, 1400.515 1314.215, 1401.079 1315.128 C 1402.064 1316.722, 1427.370 1317.340, 1430.250 1315.841 C 1431.326 1315.281, 1432 1315.294, 1432 1315.876 C 1432 1316.397, 1432.778 1316.709, 1433.729 1316.569 C 1434.680 1316.430, 1436.097 1316.954, 1436.878 1317.735 C 1438.259 1319.117, 1439.457 1319.063, 1443.414 1317.444 C 1444.763 1316.891, 1445.115 1317.006, 1444.605 1317.830 C 1444.176 1318.525, 1444.491 1319, 1445.382 1319 C 1446.207 1319, 1447.113 1318.627, 1447.395 1318.171 C 1448.110 1317.012, 1457.084 1317.521, 1457.862 1318.764 C 1458.616 1319.968, 1482.002 1319.735, 1483.994 1318.504 C 1484.742 1318.041, 1485.066 1318.085, 1484.745 1318.604 C 1483.782 1320.162, 1497.093 1320.048, 1499.333 1318.480 C 1501.085 1317.252, 1501.498 1317.291, 1502.636 1318.788 C 1503.523 1319.956, 1503.947 1320.081, 1503.968 1319.183 C 1503.989 1318.324, 1504.697 1318.086, 1506 1318.500 C 1507.306 1318.915, 1508.005 1318.678, 1508.015 1317.817 C 1508.027 1316.785, 1508.222 1316.802, 1508.914 1317.896 C 1509.400 1318.663, 1510.519 1319.015, 1511.399 1318.677 C 1512.280 1318.339, 1513 1318.517, 1513 1319.072 C 1513 1319.627, 1514.688 1319.992, 1516.750 1319.882 C 1518.813 1319.773, 1521.907 1320.004, 1523.626 1320.394 C 1525.867 1320.903, 1527.195 1320.663, 1528.313 1319.545 C 1529.171 1318.687, 1530.117 1318.380, 1530.415 1318.863 C 1530.714 1319.346, 1533.649 1319.726, 1536.937 1319.707 C 1540.225 1319.688, 1542.713 1319.345, 1542.465 1318.943 C 1542.217 1318.542, 1543.646 1318.582, 1545.640 1319.032 C 1547.775 1319.513, 1550.342 1319.440, 1551.883 1318.854 C 1553.322 1318.307, 1556.323 1317.748, 1558.552 1317.611 C 1560.780 1317.475, 1563.143 1317.030, 1563.802 1316.622 C 1564.461 1316.215, 1565 1316.325, 1565 1316.866 C 1565 1318.299, 1572.653 1317.528, 1574.668 1315.892 C 1575.612 1315.126, 1576.066 1315.030, 1575.677 1315.678 C 1574.749 1317.226, 1578.704 1318.491, 1580.309 1317.158 C 1581.021 1316.567, 1585.945 1316.302, 1592.238 1316.517 C 1598.132 1316.718, 1603.171 1316.532, 1603.436 1316.104 C 1603.700 1315.676, 1606.748 1315.502, 1610.208 1315.717 C 1613.669 1315.933, 1618.075 1316.203, 1620 1316.318 C 1623.216 1316.510, 1628.602 1319.186, 1630.138 1321.355 C 1630.489 1321.851, 1631.246 1321.966, 1631.819 1321.612 C 1632.393 1321.257, 1633.118 1321.382, 1633.432 1321.890 C 1633.745 1322.397, 1634.902 1322.577, 1636.001 1322.289 C 1637.100 1322.002, 1638 1322.203, 1638 1322.735 C 1638 1323.907, 1652.016 1323.523, 1652.893 1322.328 C 1653.227 1321.873, 1654.625 1321.351, 1656 1321.168 C 1659.671 1320.681, 1660.597 1319.380, 1663.951 1310 C 1667.355 1300.479, 1667.531 1299.563, 1665.750 1300.633 C 1664.795 1301.207, 1664.764 1301.043, 1665.620 1299.942 C 1666.561 1298.730, 1667.291 1296.093, 1668.510 1289.500 C 1668.612 1288.950, 1668.800 1288.275, 1668.929 1288 C 1669.057 1287.725, 1669.317 1286.375, 1669.506 1285 C 1670.386 1278.596, 1672.148 1272.692, 1674.949 1266.763 C 1676.627 1263.212, 1678 1259.787, 1678 1259.153 C 1678 1258.519, 1678.360 1258, 1678.800 1258 C 1679.595 1258, 1682.348 1247.322, 1682.538 1243.500 C 1682.592 1242.400, 1682.906 1240.825, 1683.235 1240 C 1683.563 1239.175, 1683.872 1237.825, 1683.920 1237 C 1683.968 1236.175, 1684.240 1233.925, 1684.524 1232 C 1685.401 1226.054, 1685.984 1217.984, 1686.405 1205.960 C 1686.628 1199.613, 1687.069 1192.790, 1687.386 1190.797 C 1687.702 1188.805, 1688.213 1183.648, 1688.521 1179.338 C 1689.079 1171.511, 1689.338 1168.918, 1690.501 1159.500 C 1691.069 1154.903, 1691.372 1149.885, 1692.348 1129 C 1692.540 1124.875, 1692.977 1120.375, 1693.317 1119 C 1694.101 1115.839, 1695.144 1104.732, 1695.572 1095 C 1695.754 1090.875, 1695.981 1087.500, 1696.079 1087.500 C 1696.386 1087.500, 1696.776 1083.763, 1697.375 1075.106 C 1697.694 1070.489, 1698.162 1066.505, 1698.414 1066.253 C 1698.666 1066.001, 1698.468 1064.732, 1697.974 1063.433 C 1697.411 1061.950, 1697.447 1060.842, 1698.073 1060.455 C 1698.621 1060.116, 1699.017 1057.963, 1698.953 1055.670 C 1698.889 1053.376, 1699.144 1043.175, 1699.519 1033 C 1700.888 995.956, 1701.044 991.235, 1701.411 976 C 1701.674 965.106, 1701.445 960.282, 1700.642 959.765 C 1699.816 959.234, 1699.845 959.026, 1700.746 959.015 C 1701.708 959.003, 1701.873 955.529, 1701.472 943.750 C 1700.715 921.515, 1699.770 909.526, 1698.556 906.758 C 1697.526 904.409, 1700.226 903.441, 1703.768 904.890 C 1705.271 905.505, 1709.200 906.225, 1712.500 906.490 C 1715.800 906.755, 1720.525 907.377, 1723 907.871 C 1725.475 908.366, 1730.650 908.835, 1734.500 908.915 C 1738.350 908.994, 1745.512 909.509, 1750.416 910.058 C 1758.638 910.979, 1765.594 911.649, 1775.301 912.454 C 1777.392 912.627, 1779.379 913.046, 1779.718 913.384 C 1780.858 914.525, 1793 914.062, 1793 912.878 C 1793 912.080, 1793.415 912.100, 1794.436 912.947 C 1795.416 913.760, 1796.448 913.831, 1797.686 913.168 C 1799.485 912.205, 1800.216 912, 1801.846 912 C 1803.798 912, 1802.166 904.410, 1799.612 901.611 C 1798.162 900.022, 1797.094 897.997, 1797.238 897.111 C 1797.443 895.852, 1796.516 895.457, 1793 895.302 C 1790.525 895.194, 1784.430 894.922, 1779.456 894.698 C 1774.482 894.474, 1769.447 893.774, 1768.267 893.143 C 1766.953 892.440, 1765.894 892.363, 1765.535 892.944 C 1765.177 893.522, 1763.483 893.376, 1761.200 892.571 C 1757.613 891.305, 1745.897 890.054, 1732 889.452 C 1724.592 889.131, 1720.163 888.473, 1711.180 886.359 C 1707.704 885.541, 1703.580 885.153, 1702.014 885.497 C 1700.167 885.903, 1698.875 885.662, 1698.334 884.811 C 1697.875 884.090, 1696.375 883.432, 1695 883.348 C 1691.157 883.114, 1688.123 882.457, 1687.359 881.692 C 1686.181 880.515, 1681.195 880.930, 1680.662 882.250 C 1680.359 883.001, 1680.126 882.806, 1680.079 881.761 C 1680.029 880.668, 1679.164 879.999, 1677.750 879.959 C 1670.832 879.764, 1668.241 879.420, 1668.655 878.750 C 1668.909 878.338, 1668.416 878, 1667.559 878 C 1666.702 878, 1666 878.408, 1666 878.906 C 1666 879.405, 1665.105 879.579, 1664.011 879.293 C 1662.917 879.007, 1662.214 878.463, 1662.447 878.086 C 1662.955 877.264, 1655.073 874.825, 1651.223 874.613 C 1649.725 874.531, 1647.833 874.043, 1647.018 873.529 C 1646.202 873.015, 1644.852 872.538, 1644.018 872.469 C 1639.709 872.114, 1634.353 870.657, 1631.261 869 C 1629.354 867.978, 1627.165 867.383, 1626.397 867.678 C 1625.629 867.973, 1625 867.716, 1625 867.107 C 1625 866.498, 1624.329 866, 1623.508 866 C 1622.688 866, 1621.455 865.100, 1620.768 864 C 1620.081 862.900, 1618.782 862, 1617.882 862 C 1616.982 862, 1615.668 861.305, 1614.962 860.454 C 1614.257 859.604, 1613.080 859.139, 1612.347 859.420 C 1611.108 859.896, 1607 856.460, 1607 854.948 C 1607 854.577, 1605.987 854.333, 1604.750 854.407 C 1602.680 854.530, 1600 852.930, 1600 851.571 C 1600 850.327, 1596.039 847.129, 1595.525 847.959 C 1595.224 848.446, 1593.345 847.305, 1591.349 845.422 C 1589.353 843.540, 1587.082 842, 1586.301 842 C 1585.521 842, 1585.160 841.550, 1585.500 841 C 1585.840 840.450, 1585.707 840, 1585.205 840 C 1584.703 840, 1583.101 838.896, 1581.646 837.548 C 1580.191 836.199, 1578.985 835.412, 1578.966 835.798 C 1578.911 836.928, 1569.004 825.610, 1569.002 824.415 C 1569.001 823.819, 1567.763 822.159, 1566.250 820.728 C 1561.178 815.928, 1560.529 814.511, 1559.296 805.555 C 1558.997 803.385, 1558.134 800.991, 1557.378 800.235 C 1556.366 799.223, 1556.276 798.353, 1557.037 796.931 C 1557.725 795.645, 1557.733 795, 1557.060 795 C 1556.433 795, 1556.364 794.145, 1556.878 792.750 C 1557.820 790.191, 1557.543 776.385, 1556.497 773.776 C 1556.072 772.716, 1556.464 771.393, 1557.514 770.343 C 1559.078 768.779, 1559.086 768.536, 1557.611 767.457 C 1555.909 766.213, 1555.328 764.467, 1556.949 765.469 C 1557.962 766.095, 1559.567 759.680, 1559.132 756.743 C 1558.989 755.777, 1559.576 754.716, 1560.436 754.386 C 1561.390 754.020, 1562.006 752.561, 1562.015 750.643 C 1562.028 748.139, 1562.249 747.805, 1563.102 749 C 1563.963 750.205, 1564.076 750.057, 1563.680 748.249 C 1563.392 746.934, 1563.592 746.248, 1564.160 746.599 C 1565.248 747.271, 1567.919 744.201, 1567.968 742.221 C 1567.986 741.517, 1569.800 738.664, 1572 735.881 C 1574.200 733.098, 1576 730.438, 1576 729.971 C 1576 729.504, 1577.800 727.042, 1580 724.500 C 1582.200 721.958, 1584.007 719.118, 1584.015 718.189 C 1584.027 716.882, 1584.222 716.802, 1584.876 717.834 C 1585.539 718.880, 1585.873 718.772, 1586.425 717.334 C 1586.812 716.325, 1587.006 715.500, 1586.854 715.500 C 1586.703 715.500, 1589.411 712.704, 1592.871 709.286 C 1596.332 705.869, 1598.878 702.611, 1598.529 702.048 C 1598.154 701.440, 1598.528 701.265, 1599.448 701.618 C 1600.302 701.946, 1601 701.788, 1601 701.268 C 1601 700.747, 1602.125 699.808, 1603.500 699.182 C 1604.875 698.555, 1606.025 697.471, 1606.056 696.771 C 1606.087 696.072, 1608.787 693.253, 1612.056 690.507 C 1615.325 687.761, 1618 684.873, 1618 684.090 C 1618 683.307, 1618.284 682.950, 1618.631 683.297 C 1618.977 683.644, 1622.600 680.456, 1626.680 676.214 C 1630.761 671.971, 1634.640 668.480, 1635.300 668.455 C 1635.960 668.430, 1636.376 667.834, 1636.225 667.130 C 1636.074 666.427, 1636.330 666.086, 1636.793 666.372 C 1637.257 666.659, 1638.823 665.792, 1640.274 664.446 C 1641.725 663.101, 1643.784 662, 1644.849 662 C 1645.915 662, 1647.002 661.436, 1647.267 660.746 C 1647.532 660.057, 1649.492 658.890, 1651.624 658.153 C 1653.756 657.417, 1657.491 655.421, 1659.925 653.719 C 1662.359 652.017, 1663.963 651.250, 1663.491 652.015 C 1663.018 652.780, 1664.706 652.190, 1667.243 650.703 C 1669.780 649.216, 1672.386 648, 1673.033 648 C 1673.680 648, 1676.188 646.665, 1678.605 645.034 C 1681.022 643.402, 1683 642.498, 1683 643.024 C 1683 643.550, 1683.880 643.227, 1684.956 642.305 C 1686.033 641.384, 1687.630 640.525, 1688.506 640.396 C 1689.382 640.268, 1690.797 639.583, 1691.651 638.875 C 1692.504 638.167, 1693.831 637.455, 1694.601 637.294 C 1697.733 636.636, 1698.648 636.334, 1702 634.849 C 1708.478 631.979, 1716.529 629, 1717.805 629 C 1718.501 629, 1720.067 628.358, 1721.285 627.574 C 1722.503 626.790, 1726.650 625.159, 1730.500 623.949 C 1734.350 622.739, 1737.892 621.390, 1738.372 620.952 C 1738.851 620.515, 1739.938 620.423, 1740.786 620.748 C 1741.798 621.137, 1742.080 620.938, 1741.605 620.170 C 1741.207 619.526, 1741.359 619, 1741.941 619 C 1742.523 619, 1743 619.540, 1743 620.200 C 1743 621.075, 1743.299 621.101, 1744.104 620.296 C 1745.247 619.153, 1753.062 621.154, 1755.774 623.284 C 1757.669 624.772, 1758.318 623.508, 1757.606 619.715 C 1757.006 616.513, 1753.137 612, 1750.992 612 C 1750.447 612, 1750 611.604, 1750 611.120 C 1750 609.862, 1731.857 609.724, 1728.612 610.957 C 1727.119 611.525, 1724.458 612.241, 1722.699 612.548 C 1720.939 612.855, 1719.358 613.507, 1719.185 613.997 C 1719.012 614.487, 1718.265 614.655, 1717.526 614.371 C 1716.786 614.088, 1714.847 614.545, 1713.217 615.388 C 1711.587 616.231, 1710.013 616.680, 1709.720 616.386 C 1709.426 616.093, 1707.907 616.502, 1706.343 617.297 C 1704.779 618.091, 1702.487 618.577, 1701.250 618.377 C 1700.013 618.176, 1699 618.406, 1699 618.888 C 1699 619.369, 1696.868 620.299, 1694.263 620.955 C 1691.658 621.611, 1689.071 622.503, 1688.513 622.936 C 1687.320 623.864, 1681.723 625.298, 1681 624.861 C 1680.228 624.394, 1681.039 621.667, 1682.447 620 C 1684.003 618.156, 1687.245 597.615, 1687.102 590.504 C 1687.069 588.856, 1687.435 586.086, 1687.915 584.347 C 1688.488 582.271, 1688.412 580.812, 1687.694 580.094 C 1686.902 579.302, 1686.908 579, 1687.714 579 C 1688.416 579, 1688.823 576.685, 1688.813 572.750 C 1688.805 569.313, 1688.870 566.275, 1688.958 566 C 1689.682 563.739, 1689.531 557.072, 1688.716 555.280 C 1687.998 553.702, 1688.054 552.640, 1688.909 551.610 C 1689.650 550.716, 1690.057 547.161, 1689.970 542.331 C 1689.892 538.024, 1689.775 529.888, 1689.709 524.250 C 1689.643 518.612, 1689.290 514, 1688.925 514 C 1688.559 514, 1688.030 511.957, 1687.748 509.459 C 1687.467 506.962, 1686.525 504.133, 1685.656 503.173 C 1684.708 502.125, 1684.307 500.540, 1684.655 499.213 C 1684.997 497.905, 1684.777 497, 1684.117 497 C 1683.502 497, 1683 496.377, 1683 495.615 C 1683 494.853, 1681.875 493.493, 1680.500 492.592 C 1679.125 491.691, 1677.984 490.402, 1677.964 489.727 C 1677.862 486.246, 1670.461 481, 1665.653 481 C 1664.414 481, 1662.860 480.460, 1662.200 479.800 C 1661.267 478.867, 1660.997 478.922, 1660.985 480.050 C 1660.972 481.282, 1660.827 481.275, 1660.022 480 C 1659.501 479.175, 1658.271 478.388, 1657.288 478.251 C 1656.304 478.115, 1653.925 477.762, 1652 477.467 C 1650.075 477.172, 1647.600 476.862, 1646.500 476.777 C 1645.400 476.692, 1644.213 476.200, 1643.862 475.684 C 1643.511 475.167, 1641.486 474.645, 1639.362 474.523 C 1637.238 474.402, 1634.263 473.795, 1632.750 473.176 C 1631.044 472.477, 1629.136 472.378, 1627.724 472.915 C 1626.038 473.556, 1624.836 473.286, 1623.094 471.875 C 1621.476 470.565, 1620.368 470.279, 1619.547 470.961 C 1618.757 471.617, 1618.012 471.612, 1617.347 470.947 C 1616.795 470.395, 1614.803 469.751, 1612.921 469.518 C 1607.752 468.876, 1604.416 468.267, 1602.184 467.558 C 1601.075 467.206, 1599.921 467.318, 1599.620 467.806 C 1599.115 468.623, 1596.734 468.375, 1586.877 466.477 C 1584.577 466.034, 1583.003 466.186, 1582.566 466.892 C 1582.081 467.678, 1581.309 467.700, 1579.939 466.968 C 1578.873 466.397, 1578 466.159, 1578 466.440 C 1578 466.721, 1576.875 466.523, 1575.500 466 C 1573.774 465.344, 1573 465.390, 1573 466.147 C 1573 466.934, 1572.632 466.939, 1571.702 466.167 C 1570.988 465.575, 1568.738 464.978, 1566.702 464.841 C 1564.666 464.703, 1563 464.308, 1563 463.962 C 1563 463.616, 1562.438 463.303, 1561.750 463.265 C 1561.063 463.228, 1557.599 462.946, 1554.053 462.640 C 1550.077 462.296, 1547.106 462.497, 1546.303 463.164 C 1545.586 463.758, 1544.999 463.852, 1544.998 463.372 C 1544.997 462.893, 1543.631 462.404, 1541.962 462.287 C 1540.232 462.166, 1539.183 462.487, 1539.521 463.034 C 1539.898 463.643, 1539.219 463.654, 1537.664 463.063 C 1536.317 462.550, 1534.264 462.380, 1533.102 462.684 C 1531.940 462.987, 1530.373 462.725, 1529.620 462.099 C 1528.867 461.474, 1526.282 460.993, 1523.875 461.031 C 1518.236 461.119, 1514.811 460.686, 1513.261 459.691 C 1512.377 459.124, 1512.211 459.411, 1512.681 460.698 C 1513.308 462.413, 1513.244 462.417, 1511.356 460.764 C 1509.817 459.417, 1509.105 459.295, 1508.177 460.223 C 1507.250 461.150, 1506.664 460.966, 1505.568 459.400 C 1504.556 457.955, 1502.854 457.314, 1499.577 457.145 C 1497.060 457.014, 1495 457.339, 1495 457.866 C 1495 458.974, 1490.953 458.707, 1488.945 457.466 C 1488.195 457.003, 1485.651 456.742, 1483.291 456.887 C 1480.904 457.034, 1479 456.704, 1479 456.145 C 1479 455.535, 1474.963 455.141, 1468.750 455.145 C 1463.112 455.149, 1456.925 454.954, 1455 454.712 C 1453.075 454.470, 1448.867 454.678, 1445.648 455.174 C 1442.377 455.679, 1439.291 455.698, 1438.648 455.217 C 1436.529 453.631, 1425.139 454.564, 1423.001 456.499 C 1421.307 458.032, 1420.807 458.085, 1419.359 456.888 C 1417.411 455.277, 1412.836 455.043, 1411.765 456.500 C 1411.323 457.102, 1411.025 456.954, 1411.015 456.128 C 1411.002 454.964, 1410.742 454.964, 1409.308 456.128 C 1408.237 456.996, 1407.885 457.052, 1408.348 456.280 C 1408.900 455.361, 1407.617 455.146, 1403.145 455.407 C 1399.880 455.597, 1396.743 456.041, 1396.173 456.393 C 1395.604 456.745, 1394.856 456.575, 1394.510 456.016 C 1394.165 455.457, 1393.207 455, 1392.382 455 C 1391.503 455, 1391.177 455.478, 1391.595 456.155 C 1392.023 456.846, 1391.871 457.038, 1391.216 456.634 C 1390.616 456.262, 1388.183 455.732, 1385.812 455.455 C 1383.440 455.178, 1379.627 454.716, 1377.339 454.428 C 1375.050 454.140, 1372.902 454.350, 1372.565 454.895 C 1372.226 455.444, 1368.838 455.758, 1364.976 455.599 C 1361.139 455.441, 1358 455.595, 1358 455.942 C 1358 456.288, 1357.133 456.571, 1356.073 456.571 C 1355.014 456.571, 1354.386 456.184, 1354.679 455.710 C 1354.972 455.236, 1353.027 455.076, 1350.356 455.354 C 1347.685 455.632, 1345.136 455.891, 1344.691 455.930 C 1344.246 455.968, 1344.213 456.536, 1344.618 457.191 C 1345.023 457.846, 1343.735 457.381, 1341.756 456.158 C 1339.777 454.935, 1337.911 454.335, 1337.609 454.824 C 1337.306 455.313, 1335.133 455.611, 1332.780 455.486 C 1330.426 455.361, 1327.713 455.666, 1326.750 456.164 C 1325.720 456.698, 1325 456.700, 1325 456.172 C 1325 455.209, 1322.451 455.252, 1320 456.256 C 1317.964 457.090, 1312.083 456.685, 1312.657 455.750 C 1313.303 454.698, 1310.798 454.842, 1309.034 455.958 C 1308.177 456.500, 1307.123 456.517, 1306.499 455.999 C 1305.911 455.511, 1303.871 455.145, 1301.965 455.184 C 1300.059 455.224, 1296.554 455.071, 1294.175 454.846 C 1291.796 454.620, 1289.627 454.794, 1289.356 455.234 C 1289.084 455.673, 1288.369 455.728, 1287.766 455.356 C 1286.060 454.301, 1280.614 454.090, 1279.466 455.035 C 1278.898 455.503, 1277.825 455.510, 1277.083 455.051 C 1276.340 454.592, 1274.378 454.605, 1272.724 455.079 C 1271.069 455.554, 1269.236 455.646, 1268.650 455.284 C 1267.133 454.346, 1263 454.006, 1262.999 454.818 C 1262.998 455.682, 1254.848 455.642, 1253.438 454.771 C 1252.223 454.020, 1249.364 454.303, 1248.397 455.269 C 1248.034 455.632, 1246.839 455.449, 1245.741 454.862 C 1244.519 454.208, 1243.504 454.158, 1243.123 454.733 C 1242.431 455.777, 1230.441 455.636, 1227.851 454.553 C 1226.944 454.174, 1225.915 454.329, 1225.564 454.897 C 1225.202 455.481, 1223.248 455.696, 1221.067 455.391 C 1218.799 455.074, 1216.934 455.297, 1216.541 455.933 C 1216.089 456.665, 1215.384 456.527, 1214.365 455.508 C 1212.638 453.781, 1211 453.533, 1211 455 C 1211 456.107, 1207.708 456.375, 1206.684 455.351 C 1205.992 454.659, 1199.080 454.251, 1198.466 454.866 M 1398.064 472.960 C 1397.304 473.430, 1396.078 473.583, 1395.341 473.300 C 1394.603 473.018, 1394 473.113, 1394 473.512 C 1394 475.186, 1398.420 487.867, 1400.560 492.331 C 1401.833 494.988, 1402.613 497.845, 1402.292 498.682 C 1401.971 499.518, 1402.134 500.494, 1402.653 500.851 C 1403.486 501.424, 1406.200 508.816, 1406.563 511.500 C 1406.637 512.050, 1407.145 513.599, 1407.692 514.942 C 1408.667 517.336, 1408.722 517.302, 1410.535 513.192 C 1411.553 510.886, 1412.748 509, 1413.192 509 C 1413.637 509, 1414 508.137, 1414 507.083 C 1414 506.029, 1414.373 505.017, 1414.830 504.833 C 1415.286 504.650, 1416.913 501.800, 1418.445 498.500 C 1419.976 495.200, 1422.238 491.150, 1423.471 489.500 C 1424.704 487.850, 1426.048 485.375, 1426.459 484 C 1426.869 482.625, 1428.073 479.988, 1429.134 478.140 C 1430.557 475.661, 1430.778 474.437, 1429.977 473.472 C 1428.919 472.197, 1426.481 472.191, 1405.500 473.415 C 1402.750 473.576, 1400.263 473.346, 1399.974 472.906 C 1399.684 472.466, 1398.825 472.490, 1398.064 472.960 M 547.466 503.132 C 545.835 503.479, 545.063 503.817, 545.750 503.882 C 546.438 503.947, 547 504.884, 547 505.965 C 547 508.178, 549.555 516.590, 551.032 519.236 C 551.564 520.191, 552 522.131, 552 523.545 C 552 525.235, 552.396 525.873, 553.155 525.405 C 553.829 524.988, 554.039 525.128, 553.660 525.741 C 553.303 526.319, 553.680 528.076, 554.499 529.646 C 555.318 531.216, 555.990 533.261, 555.994 534.191 C 555.997 535.121, 556.472 536.173, 557.048 536.530 C 557.624 536.886, 557.985 537.925, 557.849 538.839 C 557.714 539.752, 558.460 542.075, 559.507 544 C 560.554 545.925, 561.303 547.885, 561.171 548.355 C 561.038 548.826, 561.392 549.767, 561.956 550.447 C 562.521 551.127, 562.687 551.980, 562.325 552.342 C 561.963 552.704, 562.206 553, 562.865 553 C 563.524 553, 564.274 552.325, 564.531 551.500 C 564.789 550.675, 565.284 549.212, 565.631 548.250 C 565.979 547.288, 566.429 545.226, 566.632 543.668 C 566.835 542.111, 567.676 539.873, 568.501 538.696 C 569.325 537.518, 570 535.678, 570 534.606 C 570 533.534, 570.597 531.947, 571.327 531.079 C 572.058 530.210, 573.266 527.475, 574.013 525 C 574.760 522.525, 575.439 520.275, 575.522 520 C 575.998 518.423, 577.299 515.118, 578.475 512.500 C 581.310 506.184, 581.137 505.118, 577.149 504.350 C 575.142 503.964, 572.375 503.614, 571 503.574 C 569.625 503.533, 567.983 503.164, 567.350 502.753 C 565.795 501.743, 560.662 502.179, 559.826 503.393 C 559.399 504.014, 558.641 503.947, 557.755 503.212 C 556.330 502.029, 552.774 502.002, 547.466 503.132 M 600.459 505.067 C 600.096 505.653, 600.014 506.348, 600.276 506.610 C 600.538 506.872, 601.019 506.392, 601.345 505.543 C 602.021 503.781, 601.445 503.471, 600.459 505.067 M 1652.040 726.864 C 1652.009 727.906, 1650.962 728.071, 1647.589 727.566 C 1645.162 727.202, 1642.935 727.296, 1642.639 727.775 C 1642.343 728.255, 1640.390 728.488, 1638.300 728.294 C 1631.940 727.703, 1628.662 728.002, 1627.044 729.322 C 1626.195 730.015, 1624.037 730.490, 1622.250 730.378 C 1620.021 730.238, 1619 730.618, 1619 731.587 C 1619 732.364, 1618.550 733, 1618 733 C 1617.450 733, 1617 733.675, 1617 734.500 C 1617 735.325, 1617.420 736, 1617.933 736 C 1618.446 736, 1619.141 736.869, 1619.478 737.932 C 1619.875 739.182, 1621.046 739.892, 1622.796 739.943 C 1624.283 739.986, 1626.175 740.088, 1627 740.168 C 1627.825 740.249, 1629.513 739.988, 1630.750 739.590 C 1632.131 739.145, 1633 739.278, 1633 739.933 C 1633 740.520, 1633.477 741, 1634.059 741 C 1634.641 741, 1634.812 740.505, 1634.438 739.900 C 1634.019 739.222, 1634.667 739.290, 1636.129 740.078 C 1639.270 741.770, 1643 741.885, 1643 740.289 C 1643 739.048, 1646.332 738.999, 1647.556 740.222 C 1648.472 741.138, 1656.540 737.192, 1656.236 735.976 C 1656.092 735.395, 1656.445 734.037, 1657.022 732.959 C 1657.847 731.417, 1657.750 731, 1656.567 731 C 1655.740 731, 1654.393 729.763, 1653.572 728.250 C 1652.751 726.737, 1652.062 726.114, 1652.040 726.864 M 1654.631 763.809 C 1654.179 764.529, 1652.839 765.042, 1651.654 764.948 C 1650.470 764.855, 1649.050 764.876, 1648.500 764.995 C 1647.950 765.113, 1645.700 765.338, 1643.500 765.493 C 1637.289 765.932, 1628.963 767.786, 1627.407 769.077 C 1625.406 770.738, 1625.666 773.387, 1628.040 775.536 C 1629.724 777.060, 1631.814 777.392, 1640.039 777.441 C 1645.518 777.473, 1650 777.893, 1650 778.372 C 1650 778.852, 1650.675 778.685, 1651.500 778 C 1652.325 777.315, 1653 777.090, 1653 777.500 C 1653 777.910, 1653.642 777.712, 1654.426 777.062 C 1655.210 776.411, 1656.448 775.986, 1657.176 776.118 C 1657.904 776.249, 1659.960 775.489, 1661.744 774.429 C 1664.475 772.805, 1664.988 771.911, 1664.994 768.769 L 1665 765.038 1660.531 765.299 C 1657.174 765.496, 1655.986 765.180, 1655.758 764.030 C 1655.517 762.820, 1655.281 762.774, 1654.631 763.809 M 408.974 789.036 C 408.267 790.016, 407.130 790.603, 406.446 790.341 C 404.722 789.680, 403.694 791.680, 404.407 794.307 C 405.176 797.140, 409.175 799.991, 413.072 800.484 C 414.760 800.697, 416.672 801.311, 417.321 801.847 C 417.969 802.383, 420.300 803.150, 422.500 803.552 C 424.700 803.955, 427.388 804.895, 428.473 805.642 C 429.557 806.389, 431.930 807, 433.744 807 C 436.286 807, 437.302 806.431, 438.173 804.519 C 438.795 803.155, 440.135 801.774, 441.152 801.452 C 442.168 801.129, 443 800.221, 443 799.433 C 443 798.645, 443.450 798, 444 798 C 445.801 798, 445.051 795.776, 442.431 793.348 C 441.018 792.039, 439.474 791.207, 439 791.500 C 438.526 791.793, 437.856 791.575, 437.510 791.016 C 437.165 790.457, 435.982 790, 434.882 790 C 433.782 790, 433.089 789.663, 433.343 789.250 C 433.919 788.314, 426.040 788.335, 424 789.275 C 422.426 790.001, 418.545 789.752, 416 788.761 C 412.158 787.267, 410.194 787.344, 408.974 789.036 M 448.830 828.010 C 448.645 828.565, 447.595 829.204, 446.497 829.429 C 445.399 829.654, 442.847 830.541, 440.827 831.400 C 438.010 832.599, 437.038 832.676, 436.656 831.731 C 436.266 830.767, 436.141 830.771, 436.079 831.748 C 436.020 832.687, 434 832.851, 427.915 832.411 C 420.157 831.851, 414 833.014, 414 835.040 C 414 835.478, 413.727 836.548, 413.393 837.418 C 412.998 838.448, 413.336 839, 414.362 839 C 415.351 839, 415.723 839.558, 415.362 840.500 C 414.948 841.577, 415.464 842, 417.193 842 C 418.517 842, 420.027 842.389, 420.550 842.864 C 422.443 844.584, 427.572 845.634, 430.750 844.951 C 432.593 844.555, 434 844.656, 434 845.185 C 434 845.698, 434.450 845.840, 435 845.500 C 435.550 845.160, 436 845.328, 436 845.873 C 436 846.902, 440.548 846.785, 441.604 845.729 C 441.935 845.398, 443.314 845.549, 444.668 846.064 C 447.888 847.288, 447.690 847.371, 448.411 844.500 C 448.756 843.125, 449.705 842, 450.519 842 C 451.334 842, 452 841.523, 452 840.941 C 452 840.359, 452.370 840.110, 452.822 840.390 C 454.109 841.185, 456.481 837.725, 456.684 834.755 C 456.940 831.006, 449.858 824.925, 448.830 828.010 M 1716 1459.333 C 1716 1460.067, 1716.668 1460.667, 1717.484 1460.667 C 1718.608 1460.667, 1718.699 1460.343, 1717.862 1459.333 C 1717.253 1458.600, 1716.585 1458, 1716.378 1458 C 1716.170 1458, 1716 1458.600, 1716 1459.333 M 1714 1463.309 C 1714 1464.029, 1713.292 1465.491, 1712.426 1466.559 C 1711.560 1467.626, 1711.133 1467.943, 1711.478 1467.261 C 1711.883 1466.460, 1711.578 1466.225, 1710.615 1466.594 C 1709.796 1466.908, 1709.378 1467.822, 1709.686 1468.624 C 1709.994 1469.426, 1709.853 1469.992, 1709.373 1469.882 C 1707.906 1469.547, 1705 1471.148, 1705 1472.293 C 1705 1472.886, 1704.022 1474.413, 1702.826 1475.686 C 1701.630 1476.958, 1701.180 1478, 1701.826 1478 C 1702.472 1478, 1703 1478.436, 1703 1478.969 C 1703 1479.501, 1702.371 1479.696, 1701.601 1479.400 C 1699.256 1478.500, 1698.895 1480.652, 1700.972 1483.146 C 1702.759 1485.290, 1702.936 1485.329, 1702.967 1483.583 C 1702.985 1482.529, 1703.293 1481.960, 1703.651 1482.318 C 1704.526 1483.193, 1706.928 1479.926, 1706.968 1477.807 C 1706.986 1476.875, 1707.787 1475.525, 1708.750 1474.807 C 1709.713 1474.088, 1711.175 1472.626, 1712 1471.558 C 1713.333 1469.832, 1713.333 1469.701, 1712 1470.382 C 1711.127 1470.828, 1711.230 1470.550, 1712.247 1469.716 C 1713.938 1468.330, 1715.889 1462, 1714.625 1462 C 1714.281 1462, 1714 1462.589, 1714 1463.309 M 1696.485 1483.288 C 1695.927 1483.955, 1693.685 1486.975, 1691.502 1490 C 1689.320 1493.025, 1687.214 1495.642, 1686.823 1495.815 C 1686.432 1495.988, 1686.389 1496.849, 1686.726 1497.729 C 1687.134 1498.792, 1686.947 1499.085, 1686.168 1498.604 C 1685.457 1498.164, 1684.639 1498.788, 1684.088 1500.190 C 1683.588 1501.460, 1680.868 1504.975, 1678.042 1508 C 1674.892 1511.372, 1673.073 1514.148, 1673.339 1515.175 C 1673.630 1516.296, 1673.311 1516.673, 1672.375 1516.314 C 1671.411 1515.944, 1671.169 1516.277, 1671.596 1517.389 C 1671.977 1518.383, 1671.694 1519, 1670.857 1519 C 1669.646 1519, 1664 1525.106, 1664 1526.415 C 1664 1526.702, 1664.787 1526.720, 1665.750 1526.454 C 1666.713 1526.188, 1666.037 1526.654, 1664.250 1527.488 C 1662.463 1528.323, 1661 1529.469, 1661 1530.034 C 1661 1530.600, 1660.213 1531.357, 1659.250 1531.717 C 1657.190 1532.487, 1640.038 1549.218, 1639.919 1550.573 C 1639.874 1551.083, 1637.435 1553.525, 1634.500 1556 C 1631.565 1558.475, 1629.126 1560.788, 1629.081 1561.140 C 1629.037 1561.493, 1624.388 1566.485, 1618.750 1572.235 C 1606.920 1584.302, 1604.943 1586.610, 1605.749 1587.415 C 1606.070 1587.737, 1605.609 1588, 1604.723 1588 C 1603.838 1588, 1602.316 1589.350, 1601.341 1591 C 1600.366 1592.650, 1598.991 1594, 1598.284 1594 C 1597.578 1594, 1597 1594.383, 1597 1594.852 C 1597 1595.758, 1593.364 1599.963, 1586.928 1606.500 C 1584.762 1608.700, 1582.992 1610.840, 1582.995 1611.256 C 1583.003 1612.460, 1574.006 1620.997, 1572.691 1621.032 C 1572.036 1621.049, 1572.354 1621.710, 1573.397 1622.500 C 1574.441 1623.290, 1575.748 1623.656, 1576.302 1623.313 C 1576.874 1622.960, 1577 1623.191, 1576.594 1623.848 C 1576.094 1624.658, 1575.316 1624.704, 1574.005 1624.003 C 1571.347 1622.580, 1571.346 1622.580, 1566.882 1627 C 1564.660 1629.200, 1562.427 1631, 1561.921 1631 C 1561.414 1631, 1561 1631.675, 1561 1632.500 C 1561 1633.325, 1560.553 1634, 1560.008 1634 C 1559.050 1634, 1555.624 1636.617, 1551.829 1640.250 C 1550.823 1641.213, 1549.715 1642, 1549.367 1642 C 1549.019 1642, 1548.007 1642.811, 1547.117 1643.802 C 1546.228 1644.793, 1542.229 1648.194, 1538.230 1651.360 C 1534.232 1654.526, 1529.057 1658.885, 1526.730 1661.046 C 1524.404 1663.207, 1522.186 1664.981, 1521.802 1664.988 C 1521.417 1664.994, 1519.967 1666.013, 1518.579 1667.250 C 1517.191 1668.487, 1513.034 1671.750, 1509.340 1674.500 C 1505.646 1677.250, 1501.258 1680.737, 1499.589 1682.250 C 1497.920 1683.763, 1496.017 1685, 1495.360 1685 C 1494.704 1685, 1494.017 1685.338, 1493.833 1685.750 C 1493.395 1686.737, 1485.186 1692.181, 1482 1693.599 C 1480.625 1694.211, 1477.359 1696.351, 1474.741 1698.356 C 1472.124 1700.360, 1469.729 1702, 1469.420 1702 C 1469.110 1702, 1468.178 1702.679, 1467.348 1703.509 C 1466.518 1704.339, 1465.414 1704.756, 1464.895 1704.435 C 1464.375 1704.114, 1464.074 1704.437, 1464.225 1705.152 C 1464.376 1705.867, 1463.520 1706.603, 1462.323 1706.786 C 1461.125 1706.970, 1459.607 1707.768, 1458.950 1708.560 C 1458.293 1709.352, 1457.341 1710, 1456.834 1710 C 1456.327 1710, 1454.699 1711.125, 1453.217 1712.500 C 1451.734 1713.875, 1450.061 1715, 1449.500 1715 C 1448.939 1715, 1447.266 1716.125, 1445.783 1717.500 C 1444.301 1718.875, 1442.717 1720, 1442.264 1720 C 1441.812 1720, 1440.810 1720.876, 1440.039 1721.946 C 1439.267 1723.017, 1438.268 1723.665, 1437.818 1723.387 C 1437.368 1723.109, 1437 1723.434, 1437 1724.108 C 1437 1724.782, 1436.703 1725.036, 1436.340 1724.673 C 1435.977 1724.310, 1435.053 1724.907, 1434.288 1725.999 C 1433.523 1727.091, 1428.533 1730.076, 1423.199 1732.632 C 1417.864 1735.187, 1412.877 1737.771, 1412.114 1738.374 C 1411.352 1738.977, 1410.227 1739.504, 1409.614 1739.546 C 1407.839 1739.667, 1394.604 1745.612, 1382 1751.951 C 1371.621 1757.170, 1365.496 1760.184, 1362.500 1761.544 C 1356.212 1764.399, 1346.598 1768, 1345.262 1768 C 1344.496 1768, 1342.886 1768.549, 1341.684 1769.220 C 1338.473 1771.014, 1332.846 1773.091, 1330.088 1773.501 C 1328.762 1773.698, 1326.287 1774.505, 1324.588 1775.295 C 1315.744 1779.407, 1310.725 1781.587, 1308 1782.500 C 1307.203 1782.767, 1301.645 1784.997, 1300 1785.709 C 1299.175 1786.066, 1297.825 1786.450, 1297 1786.561 C 1296.175 1786.672, 1292.677 1787.755, 1289.226 1788.968 C 1285.775 1790.180, 1281.275 1791.309, 1279.226 1791.476 C 1272.957 1791.987, 1255.707 1795.006, 1252 1796.240 C 1250.075 1796.881, 1247.938 1797.294, 1247.250 1797.159 C 1246.563 1797.023, 1245.997 1797.270, 1245.993 1797.706 C 1245.989 1798.143, 1243.856 1798.599, 1241.253 1798.720 C 1238.650 1798.841, 1236.367 1799.400, 1236.179 1799.962 C 1235.948 1800.655, 1235.214 1800.650, 1233.899 1799.946 C 1232.832 1799.375, 1231.626 1799.113, 1231.219 1799.364 C 1230.457 1799.836, 1220.927 1800.973, 1213 1801.538 C 1210.525 1801.715, 1207.375 1802.124, 1206 1802.446 C 1204.625 1802.769, 1201.475 1803.077, 1199 1803.131 C 1196.525 1803.185, 1193.959 1803.665, 1193.298 1804.197 C 1192.637 1804.730, 1191.153 1804.866, 1190 1804.500 C 1188.847 1804.134, 1187.342 1804.301, 1186.656 1804.871 C 1185.969 1805.440, 1184.529 1805.940, 1183.454 1805.982 C 1175.272 1806.298, 1170.696 1806.805, 1165.500 1807.973 C 1162.200 1808.715, 1158.422 1809.249, 1157.104 1809.160 C 1155.786 1809.071, 1154.127 1809.480, 1153.417 1810.068 C 1152.567 1810.774, 1151.510 1810.812, 1150.314 1810.179 C 1148.087 1809.001, 1139.239 1809.733, 1129 1811.942 C 1126.525 1812.476, 1122.813 1812.932, 1120.750 1812.956 C 1118.688 1812.980, 1117 1813.363, 1117 1813.807 C 1117 1814.251, 1115.728 1814.527, 1114.173 1814.419 C 1112.304 1814.289, 1110.249 1815.180, 1108.110 1817.048 L 1104.875 1819.872 1107.242 1821.423 C 1108.544 1822.276, 1111.022 1823.129, 1112.748 1823.318 C 1114.475 1823.507, 1116.624 1824.273, 1117.525 1825.020 C 1118.857 1826.126, 1119.539 1826.144, 1121.186 1825.116 C 1122.299 1824.421, 1122.942 1824.284, 1122.616 1824.812 C 1121.768 1826.184, 1125.557 1827.209, 1132.500 1827.487 C 1135.800 1827.619, 1138.950 1827.879, 1139.500 1828.066 C 1141.183 1828.637, 1148 1826.969, 1148 1825.986 C 1148 1825.478, 1148.672 1825.321, 1149.494 1825.636 C 1150.316 1825.952, 1150.692 1826.689, 1150.330 1827.275 C 1149.896 1827.978, 1150.322 1828.074, 1151.586 1827.556 C 1155.293 1826.039, 1157 1825.777, 1157 1826.724 C 1157 1827.250, 1158.688 1827.581, 1160.750 1827.460 C 1171.357 1826.834, 1179.449 1825.830, 1181.126 1824.933 C 1182.156 1824.381, 1183.014 1824.283, 1183.032 1824.715 C 1183.049 1825.147, 1183.724 1824.626, 1184.532 1823.559 C 1185.339 1822.491, 1186 1822.145, 1186 1822.789 C 1186 1823.901, 1190.245 1823.844, 1195.500 1822.661 C 1196.600 1822.414, 1201.325 1821.906, 1206 1821.532 C 1210.675 1821.159, 1216.525 1820.641, 1219 1820.380 C 1221.475 1820.120, 1225.090 1819.932, 1227.032 1819.962 C 1228.975 1819.992, 1234.793 1819.113, 1239.962 1818.008 C 1245.130 1816.904, 1250.628 1816, 1252.179 1816 C 1253.731 1816, 1255 1815.592, 1255 1815.094 C 1255 1814.595, 1255.839 1814.407, 1256.863 1814.675 C 1257.888 1814.943, 1261.601 1814.466, 1265.113 1813.615 C 1268.626 1812.764, 1273.750 1811.866, 1276.500 1811.618 C 1279.250 1811.370, 1281.500 1811.072, 1281.500 1810.956 C 1281.500 1810.840, 1282.400 1810.621, 1283.500 1810.470 C 1287.133 1809.970, 1299.463 1806.960, 1301.500 1806.075 C 1302.600 1805.597, 1306.411 1804.200, 1309.968 1802.970 C 1313.526 1801.740, 1319.223 1799.443, 1322.630 1797.867 C 1326.036 1796.290, 1329.438 1795, 1330.189 1795 C 1330.940 1795, 1332.443 1794.389, 1333.527 1793.642 C 1334.612 1792.896, 1337.300 1791.743, 1339.500 1791.081 C 1347.294 1788.735, 1352.008 1786.821, 1351.606 1786.165 C 1351.382 1785.799, 1352.616 1785.459, 1354.349 1785.409 C 1357.512 1785.318, 1376.191 1777.857, 1379 1775.564 C 1379.825 1774.890, 1383.086 1773.144, 1386.247 1771.684 C 1389.409 1770.223, 1393.787 1767.897, 1395.978 1766.514 C 1398.168 1765.131, 1400.462 1764, 1401.076 1764 C 1401.689 1764, 1403.595 1763, 1405.311 1761.779 C 1407.027 1760.557, 1409.346 1759.419, 1410.465 1759.250 C 1411.584 1759.081, 1412.650 1758.505, 1412.833 1757.971 C 1413.017 1757.437, 1413.772 1757, 1414.512 1757 C 1415.251 1757, 1418.701 1755.362, 1422.178 1753.360 C 1434.657 1746.174, 1440.508 1742.624, 1441 1741.939 C 1441.275 1741.556, 1443.750 1739.541, 1446.500 1737.462 C 1449.250 1735.383, 1451.650 1733.303, 1451.833 1732.841 C 1452.017 1732.378, 1452.692 1732, 1453.333 1731.999 C 1453.975 1731.999, 1456.158 1730.536, 1458.184 1728.749 C 1466.359 1721.540, 1468 1720.205, 1468 1720.765 C 1468 1721.086, 1469.013 1720.419, 1470.250 1719.283 C 1471.487 1718.147, 1475.650 1714.861, 1479.500 1711.980 C 1483.350 1709.099, 1486.650 1706.350, 1486.833 1705.871 C 1487.017 1705.392, 1487.735 1705, 1488.430 1705 C 1489.125 1705, 1490.732 1704.100, 1492 1703 C 1493.268 1701.900, 1494.800 1700.990, 1495.403 1700.978 C 1496.006 1700.966, 1498.630 1699.053, 1501.234 1696.728 C 1503.837 1694.403, 1508.112 1690.942, 1510.734 1689.039 C 1516.536 1684.825, 1519.592 1681.822, 1519.225 1680.695 C 1519.074 1680.231, 1519.334 1680.088, 1519.802 1680.378 C 1520.654 1680.904, 1529.165 1674.460, 1532.012 1671.133 C 1532.844 1670.161, 1534.249 1668.946, 1535.135 1668.433 C 1539.112 1666.129, 1560.232 1646.899, 1559.543 1646.210 C 1559.280 1645.946, 1560.962 1644.471, 1563.282 1642.930 C 1567.754 1639.962, 1568.414 1639.365, 1576.927 1630.592 C 1579.911 1627.517, 1582.724 1625, 1583.177 1625 C 1583.630 1625, 1584 1624.325, 1584 1623.500 C 1584 1622.675, 1584.379 1622, 1584.843 1622 C 1585.584 1622, 1590.601 1617.122, 1596.924 1610.254 C 1598.061 1609.019, 1599.894 1606.326, 1600.996 1604.269 C 1602.098 1602.212, 1603 1600.896, 1603 1601.343 C 1603 1602.994, 1617.264 1587.388, 1618.619 1584.254 C 1619.392 1582.469, 1620.356 1581.111, 1620.762 1581.236 C 1622.169 1581.671, 1625.822 1577.699, 1625.290 1576.312 C 1624.995 1575.545, 1625.147 1574.990, 1625.627 1575.078 C 1627.372 1575.396, 1628.997 1574.983, 1628.882 1574.250 C 1628.816 1573.838, 1628.823 1572.600, 1628.897 1571.500 C 1629.010 1569.804, 1629.193 1569.728, 1630.102 1571 C 1630.973 1572.219, 1631.086 1572.099, 1630.709 1570.361 C 1630.454 1569.184, 1630.682 1567.609, 1631.217 1566.861 C 1631.959 1565.821, 1632.056 1565.913, 1631.626 1567.250 C 1631.316 1568.213, 1631.499 1569, 1632.031 1569 C 1632.564 1569, 1633 1568.523, 1633 1567.941 C 1633 1567.359, 1633.392 1567.124, 1633.871 1567.420 C 1635.260 1568.279, 1660.073 1543.031, 1673.914 1526.674 C 1675.923 1524.300, 1676.091 1523.652, 1674.914 1522.816 C 1673.753 1521.991, 1673.787 1521.902, 1675.103 1522.318 C 1676.521 1522.766, 1680 1519.966, 1680 1518.376 C 1680 1518.045, 1681.145 1516.363, 1682.544 1514.637 C 1687.174 1508.928, 1691.565 1502.569, 1694.552 1497.251 C 1696.173 1494.364, 1697.803 1492.002, 1698.172 1492.001 C 1698.542 1492, 1699.364 1490.427, 1699.998 1488.505 C 1700.948 1485.627, 1700.886 1484.743, 1699.647 1483.505 C 1697.869 1481.727, 1697.797 1481.722, 1696.485 1483.288 M 1608.333 1588.456 C 1608.333 1589.257, 1608.716 1589.676, 1609.183 1589.387 C 1609.650 1589.098, 1609.774 1588.443, 1609.457 1587.931 C 1608.649 1586.623, 1608.333 1586.770, 1608.333 1588.456 M 1587.559 1616.532 C 1586.491 1617.339, 1586.099 1618, 1586.686 1618 C 1587.274 1618, 1588.315 1617.325, 1589 1616.500 C 1590.557 1614.624, 1590.067 1614.634, 1587.559 1616.532 M 1565.079 1633.583 C 1565.127 1634.748, 1565.364 1634.985, 1565.683 1634.188 C 1565.972 1633.466, 1565.936 1632.603, 1565.604 1632.271 C 1565.272 1631.939, 1565.036 1632.529, 1565.079 1633.583" stroke="none" fill="black" fill-rule="evenodd"/>
</svg>